<svg width="1728" height="93" viewBox="0 0 1728 93" fill="none" xmlns="http://www.w3.org/2000/svg">
<rect width="1728" height="93" fill="white"/>
<path d="M105.636 55H99.7216V37.5455H105.756C107.489 37.5455 108.977 37.8949 110.222 38.5938C111.472 39.2869 112.432 40.2841 113.102 41.5852C113.773 42.8864 114.108 44.4432 114.108 46.2557C114.108 48.0739 113.77 49.6364 113.094 50.9432C112.423 52.25 111.455 53.2528 110.188 53.9517C108.926 54.6506 107.409 55 105.636 55ZM102.884 52.2642H105.483C106.699 52.2642 107.713 52.0426 108.526 51.5994C109.338 51.1506 109.949 50.483 110.358 49.5966C110.767 48.7045 110.972 47.5909 110.972 46.2557C110.972 44.9205 110.767 43.8125 110.358 42.9318C109.949 42.0455 109.344 41.3835 108.543 40.946C107.747 40.5028 106.759 40.2812 105.577 40.2812H102.884V52.2642ZM122.771 55.2557C121.459 55.2557 120.325 54.983 119.371 54.4375C118.422 53.8864 117.692 53.108 117.18 52.1023C116.669 51.0909 116.413 49.9006 116.413 48.5312C116.413 47.1847 116.669 46.0028 117.18 44.9858C117.697 43.9631 118.419 43.1676 119.345 42.5994C120.271 42.0256 121.359 41.7386 122.609 41.7386C123.416 41.7386 124.178 41.8693 124.893 42.1307C125.615 42.3864 126.251 42.7841 126.803 43.3239C127.359 43.8636 127.797 44.5511 128.115 45.3864C128.433 46.2159 128.592 47.2045 128.592 48.3523V49.2983H117.862V47.2188H125.635C125.629 46.6278 125.501 46.1023 125.251 45.642C125.001 45.1761 124.652 44.8097 124.203 44.5426C123.76 44.2756 123.243 44.142 122.652 44.142C122.021 44.142 121.467 44.2955 120.99 44.6023C120.513 44.9034 120.141 45.3011 119.874 45.7955C119.612 46.2841 119.479 46.821 119.473 47.4062V49.2216C119.473 49.983 119.612 50.6364 119.891 51.1818C120.169 51.7216 120.558 52.1364 121.058 52.4261C121.558 52.7102 122.143 52.8523 122.814 52.8523C123.263 52.8523 123.669 52.7898 124.033 52.6648C124.396 52.5341 124.712 52.3438 124.979 52.0938C125.246 51.8438 125.447 51.5341 125.584 51.1648L128.464 51.4886C128.283 52.25 127.936 52.9148 127.425 53.483C126.919 54.0455 126.271 54.483 125.482 54.7955C124.692 55.1023 123.788 55.2557 122.771 55.2557ZM142.521 41.9091L137.859 55H134.45L129.788 41.9091H133.077L136.086 51.6335H136.222L139.239 41.9091H142.521ZM150.006 55.2557C148.693 55.2557 147.56 54.983 146.605 54.4375C145.656 53.8864 144.926 53.108 144.415 52.1023C143.903 51.0909 143.648 49.9006 143.648 48.5312C143.648 47.1847 143.903 46.0028 144.415 44.9858C144.932 43.9631 145.653 43.1676 146.58 42.5994C147.506 42.0256 148.594 41.7386 149.844 41.7386C150.651 41.7386 151.412 41.8693 152.128 42.1307C152.849 42.3864 153.486 42.7841 154.037 43.3239C154.594 43.8636 155.031 44.5511 155.349 45.3864C155.668 46.2159 155.827 47.2045 155.827 48.3523V49.2983H145.097V47.2188H152.869C152.864 46.6278 152.736 46.1023 152.486 45.642C152.236 45.1761 151.886 44.8097 151.438 44.5426C150.994 44.2756 150.477 44.142 149.886 44.142C149.256 44.142 148.702 44.2955 148.224 44.6023C147.747 44.9034 147.375 45.3011 147.108 45.7955C146.847 46.2841 146.713 46.821 146.707 47.4062V49.2216C146.707 49.983 146.847 50.6364 147.125 51.1818C147.403 51.7216 147.793 52.1364 148.293 52.4261C148.793 52.7102 149.378 52.8523 150.048 52.8523C150.497 52.8523 150.903 52.7898 151.267 52.6648C151.631 52.5341 151.946 52.3438 152.213 52.0938C152.48 51.8438 152.682 51.5341 152.818 51.1648L155.699 51.4886C155.517 52.25 155.17 52.9148 154.659 53.483C154.153 54.0455 153.506 54.483 152.716 54.7955C151.926 55.1023 151.023 55.2557 150.006 55.2557ZM161.522 37.5455V55H158.437V37.5455H161.522ZM170.405 55.2557C169.126 55.2557 168.018 54.9744 167.081 54.4119C166.143 53.8494 165.416 53.0625 164.899 52.0511C164.388 51.0398 164.132 49.858 164.132 48.5057C164.132 47.1534 164.388 45.9687 164.899 44.9517C165.416 43.9347 166.143 43.1449 167.081 42.5824C168.018 42.0199 169.126 41.7386 170.405 41.7386C171.683 41.7386 172.791 42.0199 173.729 42.5824C174.666 43.1449 175.391 43.9347 175.902 44.9517C176.419 45.9687 176.678 47.1534 176.678 48.5057C176.678 49.858 176.419 51.0398 175.902 52.0511C175.391 53.0625 174.666 53.8494 173.729 54.4119C172.791 54.9744 171.683 55.2557 170.405 55.2557ZM170.422 52.7841C171.115 52.7841 171.695 52.5937 172.161 52.2131C172.626 51.8267 172.973 51.3097 173.2 50.6619C173.433 50.0142 173.55 49.2926 173.55 48.4972C173.55 47.696 173.433 46.9716 173.2 46.3239C172.973 45.6705 172.626 45.1506 172.161 44.7642C171.695 44.3778 171.115 44.1847 170.422 44.1847C169.712 44.1847 169.121 44.3778 168.649 44.7642C168.183 45.1506 167.834 45.6705 167.601 46.3239C167.374 46.9716 167.26 47.696 167.26 48.4972C167.26 49.2926 167.374 50.0142 167.601 50.6619C167.834 51.3097 168.183 51.8267 168.649 52.2131C169.121 52.5937 169.712 52.7841 170.422 52.7841ZM179.296 59.9091V41.9091H182.33V44.0739H182.509C182.668 43.7557 182.893 43.4176 183.183 43.0597C183.472 42.696 183.864 42.3864 184.359 42.1307C184.853 41.8693 185.484 41.7386 186.251 41.7386C187.262 41.7386 188.174 41.9972 188.987 42.5142C189.805 43.0256 190.452 43.7841 190.93 44.7898C191.413 45.7898 191.654 47.017 191.654 48.4716C191.654 49.9091 191.418 51.1307 190.947 52.1364C190.475 53.142 189.833 53.9091 189.021 54.4375C188.208 54.9659 187.288 55.2301 186.259 55.2301C185.509 55.2301 184.887 55.1051 184.393 54.8551C183.898 54.6051 183.501 54.304 183.2 53.9517C182.904 53.5937 182.674 53.2557 182.509 52.9375H182.381V59.9091H179.296ZM182.322 48.4545C182.322 49.3011 182.441 50.0426 182.68 50.679C182.924 51.3153 183.273 51.8125 183.728 52.1705C184.188 52.5227 184.745 52.6989 185.398 52.6989C186.08 52.6989 186.651 52.517 187.112 52.1534C187.572 51.7841 187.918 51.2812 188.151 50.6449C188.39 50.0028 188.509 49.2727 188.509 48.4545C188.509 47.642 188.393 46.9205 188.16 46.2898C187.927 45.6591 187.58 45.1648 187.12 44.8068C186.66 44.4489 186.086 44.2699 185.398 44.2699C184.739 44.2699 184.18 44.4432 183.719 44.7898C183.259 45.1364 182.91 45.6222 182.671 46.2472C182.438 46.8722 182.322 47.608 182.322 48.4545ZM194.296 55V41.9091H197.245V44.1335H197.398C197.671 43.3835 198.123 42.7983 198.754 42.3778C199.384 41.9517 200.137 41.7386 201.012 41.7386C201.898 41.7386 202.646 41.9545 203.254 42.3864C203.867 42.8125 204.299 43.3949 204.549 44.1335H204.685C204.975 43.4062 205.464 42.8267 206.151 42.3949C206.844 41.9574 207.665 41.7386 208.614 41.7386C209.819 41.7386 210.802 42.1193 211.563 42.8807C212.325 43.642 212.705 44.7528 212.705 46.2131V55H209.612V46.6903C209.612 45.8778 209.396 45.2841 208.964 44.9091C208.532 44.5284 208.004 44.3381 207.379 44.3381C206.634 44.3381 206.052 44.571 205.631 45.0369C205.217 45.4972 205.009 46.0966 205.009 46.8352V55H201.984V46.5625C201.984 45.8864 201.779 45.3466 201.37 44.9432C200.967 44.5398 200.438 44.3381 199.785 44.3381C199.342 44.3381 198.938 44.4517 198.575 44.679C198.211 44.9006 197.921 45.2159 197.705 45.625C197.489 46.0284 197.381 46.5 197.381 47.0398V55H194.296ZM221.631 55.2557C220.318 55.2557 219.185 54.983 218.23 54.4375C217.281 53.8864 216.551 53.108 216.04 52.1023C215.528 51.0909 215.273 49.9006 215.273 48.5312C215.273 47.1847 215.528 46.0028 216.04 44.9858C216.557 43.9631 217.278 43.1676 218.205 42.5994C219.131 42.0256 220.219 41.7386 221.469 41.7386C222.276 41.7386 223.037 41.8693 223.753 42.1307C224.474 42.3864 225.111 42.7841 225.662 43.3239C226.219 43.8636 226.656 44.5511 226.974 45.3864C227.293 46.2159 227.452 47.2045 227.452 48.3523V49.2983H216.722V47.2188H224.494C224.489 46.6278 224.361 46.1023 224.111 45.642C223.861 45.1761 223.511 44.8097 223.062 44.5426C222.619 44.2756 222.102 44.142 221.511 44.142C220.881 44.142 220.327 44.2955 219.849 44.6023C219.372 44.9034 219 45.3011 218.733 45.7955C218.472 46.2841 218.338 46.821 218.332 47.4062V49.2216C218.332 49.983 218.472 50.6364 218.75 51.1818C219.028 51.7216 219.418 52.1364 219.918 52.4261C220.418 52.7102 221.003 52.8523 221.673 52.8523C222.122 52.8523 222.528 52.7898 222.892 52.6648C223.256 52.5341 223.571 52.3438 223.838 52.0938C224.105 51.8438 224.307 51.5341 224.443 51.1648L227.324 51.4886C227.142 52.25 226.795 52.9148 226.284 53.483C225.778 54.0455 225.131 54.483 224.341 54.7955C223.551 55.1023 222.648 55.2557 221.631 55.2557ZM233.147 47.3295V55H230.062V41.9091H233.011V44.1335H233.164C233.465 43.4006 233.945 42.8182 234.604 42.3864C235.269 41.9545 236.09 41.7386 237.067 41.7386C237.971 41.7386 238.758 41.9318 239.428 42.3182C240.104 42.7045 240.627 43.2642 240.996 43.9972C241.371 44.7301 241.556 45.6193 241.55 46.6648V55H238.465V47.142C238.465 46.267 238.238 45.5824 237.783 45.0881C237.335 44.5937 236.712 44.3466 235.917 44.3466C235.377 44.3466 234.897 44.4659 234.477 44.7045C234.062 44.9375 233.735 45.2756 233.496 45.7188C233.263 46.1619 233.147 46.6989 233.147 47.3295ZM251.224 41.9091V44.2955H243.698V41.9091H251.224ZM245.556 38.7727H248.641V51.0625C248.641 51.4773 248.704 51.7955 248.829 52.017C248.96 52.233 249.13 52.3807 249.34 52.4602C249.55 52.5398 249.783 52.5795 250.039 52.5795C250.232 52.5795 250.408 52.5653 250.567 52.5369C250.732 52.5085 250.857 52.483 250.942 52.4602L251.462 54.8722C251.298 54.929 251.062 54.9915 250.755 55.0597C250.454 55.1278 250.085 55.1676 249.647 55.179C248.874 55.2017 248.178 55.0852 247.559 54.8295C246.94 54.5682 246.448 54.1648 246.085 53.6193C245.727 53.0739 245.55 52.392 245.556 51.5739V38.7727Z" fill="black"/>
<path d="M395.722 55V37.5455H406.903V40.196H398.884V44.9347H406.136V47.5852H398.884V55H395.722ZM409.648 55V41.9091H412.733V55H409.648ZM411.199 40.0511C410.71 40.0511 410.29 39.8892 409.938 39.5653C409.585 39.2358 409.409 38.8409 409.409 38.3807C409.409 37.9148 409.585 37.5199 409.938 37.196C410.29 36.8665 410.71 36.7017 411.199 36.7017C411.693 36.7017 412.114 36.8665 412.46 37.196C412.813 37.5199 412.989 37.9148 412.989 38.3807C412.989 38.8409 412.813 39.2358 412.46 39.5653C412.114 39.8892 411.693 40.0511 411.199 40.0511ZM418.991 47.3295V55H415.906V41.9091H418.854V44.1335H419.008C419.309 43.4006 419.789 42.8182 420.448 42.3864C421.113 41.9545 421.934 41.7386 422.911 41.7386C423.815 41.7386 424.602 41.9318 425.272 42.3182C425.948 42.7045 426.471 43.2642 426.84 43.9972C427.215 44.7301 427.4 45.6193 427.394 46.6648V55H424.309V47.142C424.309 46.267 424.082 45.5824 423.627 45.0881C423.178 44.5937 422.556 44.3466 421.761 44.3466C421.221 44.3466 420.741 44.4659 420.32 44.7045C419.906 44.9375 419.579 45.2756 419.34 45.7188C419.107 46.1619 418.991 46.6989 418.991 47.3295ZM434.298 55.2642C433.468 55.2642 432.721 55.1165 432.056 54.821C431.397 54.5199 430.874 54.0767 430.488 53.4915C430.107 52.9062 429.917 52.1847 429.917 51.3267C429.917 50.5881 430.053 49.9773 430.326 49.4943C430.599 49.0114 430.971 48.625 431.442 48.3352C431.914 48.0455 432.445 47.8267 433.036 47.679C433.633 47.5256 434.249 47.4148 434.886 47.3466C435.653 47.267 436.275 47.196 436.752 47.1335C437.229 47.0653 437.576 46.9631 437.792 46.8267C438.013 46.6847 438.124 46.4659 438.124 46.1705V46.1193C438.124 45.4773 437.934 44.9801 437.553 44.6278C437.173 44.2756 436.624 44.0994 435.908 44.0994C435.153 44.0994 434.553 44.2642 434.11 44.5938C433.673 44.9233 433.377 45.3125 433.224 45.7614L430.343 45.3523C430.57 44.5568 430.945 43.892 431.468 43.358C431.991 42.8182 432.63 42.4148 433.386 42.1477C434.141 41.875 434.977 41.7386 435.891 41.7386C436.522 41.7386 437.15 41.8125 437.775 41.9602C438.4 42.108 438.971 42.3523 439.488 42.6932C440.005 43.0284 440.42 43.4858 440.732 44.0653C441.05 44.6449 441.21 45.3693 441.21 46.2386V55H438.244V53.2017H438.141C437.954 53.5653 437.69 53.9062 437.349 54.2244C437.013 54.5369 436.59 54.7898 436.079 54.983C435.573 55.1705 434.979 55.2642 434.298 55.2642ZM435.099 52.9972C435.718 52.9972 436.255 52.875 436.71 52.6307C437.164 52.3807 437.513 52.0511 437.758 51.642C438.008 51.233 438.133 50.7869 438.133 50.304V48.7614C438.036 48.8409 437.871 48.9148 437.638 48.983C437.411 49.0511 437.156 49.1108 436.871 49.1619C436.587 49.2131 436.306 49.2585 436.028 49.2983C435.749 49.3381 435.508 49.3722 435.303 49.4006C434.843 49.4631 434.431 49.5653 434.067 49.7074C433.704 49.8494 433.417 50.0483 433.207 50.304C432.996 50.554 432.891 50.8778 432.891 51.2756C432.891 51.8438 433.099 52.2727 433.513 52.5625C433.928 52.8523 434.457 52.9972 435.099 52.9972ZM447.397 47.3295V55H444.312V41.9091H447.261V44.1335H447.414C447.715 43.4006 448.195 42.8182 448.854 42.3864C449.519 41.9545 450.34 41.7386 451.317 41.7386C452.221 41.7386 453.008 41.9318 453.678 42.3182C454.354 42.7045 454.877 43.2642 455.246 43.9972C455.621 44.7301 455.806 45.6193 455.8 46.6648V55H452.715V47.142C452.715 46.267 452.488 45.5824 452.033 45.0881C451.585 44.5937 450.962 44.3466 450.167 44.3466C449.627 44.3466 449.147 44.4659 448.727 44.7045C448.312 44.9375 447.985 45.2756 447.746 45.7188C447.513 46.1619 447.397 46.6989 447.397 47.3295ZM464.647 55.2557C463.34 55.2557 462.218 54.9688 461.281 54.3949C460.349 53.821 459.63 53.0284 459.124 52.017C458.624 51 458.374 49.8295 458.374 48.5057C458.374 47.1761 458.63 46.0028 459.141 44.9858C459.653 43.9631 460.374 43.1676 461.306 42.5994C462.244 42.0256 463.352 41.7386 464.63 41.7386C465.692 41.7386 466.633 41.9347 467.451 42.3267C468.275 42.7131 468.931 43.2614 469.42 43.9716C469.908 44.6761 470.187 45.5 470.255 46.4432H467.306C467.187 45.8125 466.903 45.2869 466.454 44.8665C466.011 44.4403 465.417 44.2273 464.673 44.2273C464.042 44.2273 463.488 44.3977 463.011 44.7386C462.533 45.0739 462.161 45.5568 461.894 46.1875C461.633 46.8182 461.502 47.5739 461.502 48.4545C461.502 49.3466 461.633 50.1136 461.894 50.7557C462.156 51.392 462.522 51.8835 462.994 52.2301C463.471 52.571 464.031 52.7415 464.673 52.7415C465.127 52.7415 465.533 52.6562 465.891 52.4858C466.255 52.3097 466.559 52.0568 466.803 51.7273C467.048 51.3977 467.215 50.9972 467.306 50.5256H470.255C470.181 51.4517 469.908 52.2727 469.437 52.9886C468.965 53.6989 468.323 54.2557 467.511 54.6591C466.698 55.0568 465.744 55.2557 464.647 55.2557ZM478.584 55.2557C477.271 55.2557 476.138 54.983 475.183 54.4375C474.234 53.8864 473.504 53.108 472.993 52.1023C472.482 51.0909 472.226 49.9006 472.226 48.5312C472.226 47.1847 472.482 46.0028 472.993 44.9858C473.51 43.9631 474.232 43.1676 475.158 42.5994C476.084 42.0256 477.172 41.7386 478.422 41.7386C479.229 41.7386 479.99 41.8693 480.706 42.1307C481.428 42.3864 482.064 42.7841 482.615 43.3239C483.172 43.8636 483.609 44.5511 483.928 45.3864C484.246 46.2159 484.405 47.2045 484.405 48.3523V49.2983H473.675V47.2188H481.447C481.442 46.6278 481.314 46.1023 481.064 45.642C480.814 45.1761 480.464 44.8097 480.016 44.5426C479.572 44.2756 479.055 44.142 478.464 44.142C477.834 44.142 477.28 44.2955 476.803 44.6023C476.325 44.9034 475.953 45.3011 475.686 45.7955C475.425 46.2841 475.291 46.821 475.286 47.4062V49.2216C475.286 49.983 475.425 50.6364 475.703 51.1818C475.982 51.7216 476.371 52.1364 476.871 52.4261C477.371 52.7102 477.956 52.8523 478.626 52.8523C479.075 52.8523 479.482 52.7898 479.845 52.6648C480.209 52.5341 480.524 52.3438 480.791 52.0938C481.058 51.8438 481.26 51.5341 481.396 51.1648L484.277 51.4886C484.095 52.25 483.749 52.9148 483.237 53.483C482.732 54.0455 482.084 54.483 481.294 54.7955C480.504 55.1023 479.601 55.2557 478.584 55.2557ZM498.184 55.2557C496.991 55.2557 495.965 55.0398 495.107 54.608C494.249 54.1761 493.587 53.5938 493.121 52.8608C492.661 52.1222 492.431 51.2898 492.431 50.3636C492.431 49.6648 492.573 49.0455 492.857 48.5057C493.147 47.9659 493.545 47.4659 494.05 47.0057C494.562 46.5455 495.153 46.0881 495.823 45.6335L498.917 43.5284C499.371 43.233 499.715 42.9205 499.948 42.5909C500.187 42.2614 500.306 41.875 500.306 41.4318C500.306 41.0568 500.147 40.7017 499.829 40.3665C499.516 40.0312 499.085 39.8636 498.533 39.8636C498.164 39.8636 497.837 39.9517 497.553 40.1278C497.275 40.2983 497.056 40.5227 496.897 40.8011C496.744 41.0795 496.667 41.375 496.667 41.6875C496.667 42.0682 496.772 42.4545 496.982 42.8466C497.198 43.2386 497.477 43.6449 497.817 44.0653C498.164 44.4858 498.533 44.9318 498.925 45.4034L507.116 55H503.775L496.974 47.2102C496.468 46.6193 495.979 46.0369 495.508 45.4631C495.042 44.8892 494.658 44.2926 494.357 43.6733C494.062 43.0483 493.914 42.3722 493.914 41.6449C493.914 40.821 494.104 40.0852 494.485 39.4375C494.866 38.7841 495.397 38.2699 496.079 37.8949C496.766 37.5199 497.57 37.3324 498.491 37.3324C499.411 37.3324 500.201 37.5142 500.86 37.8778C501.519 38.2415 502.028 38.7244 502.386 39.3267C502.744 39.929 502.923 40.5852 502.923 41.2955C502.923 42.1193 502.718 42.858 502.309 43.5114C501.9 44.1591 501.332 44.7472 500.604 45.2756L497.076 47.858C496.496 48.2784 496.082 48.7045 495.832 49.1364C495.582 49.5625 495.457 49.9261 495.457 50.2273C495.457 50.6875 495.573 51.1051 495.806 51.4801C496.039 51.8551 496.366 52.1562 496.786 52.3835C497.212 52.6051 497.71 52.7159 498.278 52.7159C498.903 52.7159 499.519 52.5767 500.127 52.2983C500.735 52.0142 501.289 51.6108 501.789 51.0881C502.289 50.5653 502.687 49.9403 502.982 49.2131C503.278 48.4801 503.425 47.6676 503.425 46.7756H506.076C506.076 47.8778 505.954 48.8381 505.71 49.6562C505.465 50.4688 505.15 51.1562 504.763 51.7188C504.377 52.2756 503.968 52.7216 503.536 53.0568C503.4 53.1534 503.269 53.25 503.144 53.3466C503.019 53.4432 502.888 53.5398 502.752 53.6364C502.138 54.1932 501.42 54.6023 500.596 54.8636C499.778 55.125 498.974 55.2557 498.184 55.2557ZM517.213 55H513.838L519.983 37.5455H523.886L530.04 55H526.665L522.003 41.125H521.866L517.213 55ZM517.324 48.1562H526.528V50.696H517.324V48.1562ZM537.514 55.2557C536.207 55.2557 535.085 54.9688 534.148 54.3949C533.216 53.821 532.497 53.0284 531.991 52.017C531.491 51 531.241 49.8295 531.241 48.5057C531.241 47.1761 531.497 46.0028 532.009 44.9858C532.52 43.9631 533.241 43.1676 534.173 42.5994C535.111 42.0256 536.219 41.7386 537.497 41.7386C538.56 41.7386 539.5 41.9347 540.318 42.3267C541.142 42.7131 541.798 43.2614 542.287 43.9716C542.776 44.6761 543.054 45.5 543.122 46.4432H540.173C540.054 45.8125 539.77 45.2869 539.321 44.8665C538.878 44.4403 538.284 44.2273 537.54 44.2273C536.909 44.2273 536.355 44.3977 535.878 44.7386C535.401 45.0739 535.028 45.5568 534.761 46.1875C534.5 46.8182 534.369 47.5739 534.369 48.4545C534.369 49.3466 534.5 50.1136 534.761 50.7557C535.023 51.392 535.389 51.8835 535.861 52.2301C536.338 52.571 536.898 52.7415 537.54 52.7415C537.994 52.7415 538.401 52.6562 538.759 52.4858C539.122 52.3097 539.426 52.0568 539.67 51.7273C539.915 51.3977 540.082 50.9972 540.173 50.5256H543.122C543.048 51.4517 542.776 52.2727 542.304 52.9886C541.832 53.6989 541.19 54.2557 540.378 54.6591C539.565 55.0568 538.611 55.2557 537.514 55.2557ZM551.366 55.2557C550.059 55.2557 548.937 54.9688 547.999 54.3949C547.067 53.821 546.349 53.0284 545.843 52.017C545.343 51 545.093 49.8295 545.093 48.5057C545.093 47.1761 545.349 46.0028 545.86 44.9858C546.371 43.9631 547.093 43.1676 548.025 42.5994C548.962 42.0256 550.07 41.7386 551.349 41.7386C552.411 41.7386 553.352 41.9347 554.17 42.3267C554.994 42.7131 555.65 43.2614 556.138 43.9716C556.627 44.6761 556.906 45.5 556.974 46.4432H554.025C553.906 45.8125 553.621 45.2869 553.173 44.8665C552.729 44.4403 552.136 44.2273 551.391 44.2273C550.761 44.2273 550.207 44.3977 549.729 44.7386C549.252 45.0739 548.88 45.5568 548.613 46.1875C548.352 46.8182 548.221 47.5739 548.221 48.4545C548.221 49.3466 548.352 50.1136 548.613 50.7557C548.874 51.392 549.241 51.8835 549.712 52.2301C550.19 52.571 550.749 52.7415 551.391 52.7415C551.846 52.7415 552.252 52.6562 552.61 52.4858C552.974 52.3097 553.278 52.0568 553.522 51.7273C553.766 51.3977 553.934 50.9972 554.025 50.5256H556.974C556.9 51.4517 556.627 52.2727 556.156 52.9886C555.684 53.6989 555.042 54.2557 554.229 54.6591C553.417 55.0568 552.462 55.2557 551.366 55.2557ZM565.217 55.2557C563.939 55.2557 562.831 54.9744 561.893 54.4119C560.956 53.8494 560.229 53.0625 559.712 52.0511C559.2 51.0398 558.945 49.858 558.945 48.5057C558.945 47.1534 559.2 45.9687 559.712 44.9517C560.229 43.9347 560.956 43.1449 561.893 42.5824C562.831 42.0199 563.939 41.7386 565.217 41.7386C566.496 41.7386 567.604 42.0199 568.541 42.5824C569.479 43.1449 570.203 43.9347 570.714 44.9517C571.232 45.9687 571.49 47.1534 571.49 48.5057C571.49 49.858 571.232 51.0398 570.714 52.0511C570.203 53.0625 569.479 53.8494 568.541 54.4119C567.604 54.9744 566.496 55.2557 565.217 55.2557ZM565.234 52.7841C565.928 52.7841 566.507 52.5937 566.973 52.2131C567.439 51.8267 567.786 51.3097 568.013 50.6619C568.246 50.0142 568.362 49.2926 568.362 48.4972C568.362 47.696 568.246 46.9716 568.013 46.3239C567.786 45.6705 567.439 45.1506 566.973 44.7642C566.507 44.3778 565.928 44.1847 565.234 44.1847C564.524 44.1847 563.933 44.3778 563.462 44.7642C562.996 45.1506 562.646 45.6705 562.413 46.3239C562.186 46.9716 562.072 47.696 562.072 48.4972C562.072 49.2926 562.186 50.0142 562.413 50.6619C562.646 51.3097 562.996 51.8267 563.462 52.2131C563.933 52.5937 564.524 52.7841 565.234 52.7841ZM582.452 49.4943V41.9091H585.538V55H582.546V52.6733H582.41C582.114 53.4062 581.629 54.0057 580.952 54.4716C580.282 54.9375 579.455 55.1705 578.472 55.1705C577.614 55.1705 576.856 54.9801 576.197 54.5994C575.543 54.2131 575.032 53.6534 574.663 52.9205C574.293 52.1818 574.109 51.2898 574.109 50.2443V41.9091H577.194V49.767C577.194 50.5966 577.421 51.2557 577.876 51.7443C578.33 52.233 578.927 52.4773 579.665 52.4773C580.12 52.4773 580.56 52.3665 580.987 52.1449C581.413 51.9233 581.762 51.5938 582.035 51.1562C582.313 50.7131 582.452 50.1591 582.452 49.4943ZM591.795 47.3295V55H588.71V41.9091H591.659V44.1335H591.812C592.114 43.4006 592.594 42.8182 593.253 42.3864C593.918 41.9545 594.739 41.7386 595.716 41.7386C596.619 41.7386 597.406 41.9318 598.077 42.3182C598.753 42.7045 599.276 43.2642 599.645 43.9972C600.02 44.7301 600.205 45.6193 600.199 46.6648V55H597.114V47.142C597.114 46.267 596.886 45.5824 596.432 45.0881C595.983 44.5937 595.361 44.3466 594.565 44.3466C594.026 44.3466 593.545 44.4659 593.125 44.7045C592.71 44.9375 592.384 45.2756 592.145 45.7188C591.912 46.1619 591.795 46.6989 591.795 47.3295ZM609.872 41.9091V44.2955H602.347V41.9091H609.872ZM604.205 38.7727H607.29V51.0625C607.29 51.4773 607.352 51.7955 607.477 52.017C607.608 52.233 607.778 52.3807 607.989 52.4602C608.199 52.5398 608.432 52.5795 608.688 52.5795C608.881 52.5795 609.057 52.5653 609.216 52.5369C609.381 52.5085 609.506 52.483 609.591 52.4602L610.111 54.8722C609.946 54.929 609.71 54.9915 609.403 55.0597C609.102 55.1278 608.733 55.1676 608.295 55.179C607.523 55.2017 606.827 55.0852 606.207 54.8295C605.588 54.5682 605.097 54.1648 604.733 53.6193C604.375 53.0739 604.199 52.392 604.205 51.5739V38.7727ZM612.452 55V41.9091H615.538V55H612.452ZM614.004 40.0511C613.515 40.0511 613.094 39.8892 612.742 39.5653C612.39 39.2358 612.214 38.8409 612.214 38.3807C612.214 37.9148 612.39 37.5199 612.742 37.196C613.094 36.8665 613.515 36.7017 614.004 36.7017C614.498 36.7017 614.918 36.8665 615.265 37.196C615.617 37.5199 615.793 37.9148 615.793 38.3807C615.793 38.8409 615.617 39.2358 615.265 39.5653C614.918 39.8892 614.498 40.0511 614.004 40.0511ZM621.795 47.3295V55H618.71V41.9091H621.659V44.1335H621.812C622.114 43.4006 622.594 42.8182 623.253 42.3864C623.918 41.9545 624.739 41.7386 625.716 41.7386C626.619 41.7386 627.406 41.9318 628.077 42.3182C628.753 42.7045 629.276 43.2642 629.645 43.9972C630.02 44.7301 630.205 45.6193 630.199 46.6648V55H627.114V47.142C627.114 46.267 626.886 45.5824 626.432 45.0881C625.983 44.5937 625.361 44.3466 624.565 44.3466C624.026 44.3466 623.545 44.4659 623.125 44.7045C622.71 44.9375 622.384 45.2756 622.145 45.7188C621.912 46.1619 621.795 46.6989 621.795 47.3295ZM639.028 60.1818C637.92 60.1818 636.969 60.0313 636.173 59.7301C635.378 59.4347 634.739 59.0369 634.256 58.5369C633.773 58.0369 633.438 57.483 633.25 56.875L636.028 56.2017C636.153 56.4574 636.335 56.7102 636.574 56.9602C636.813 57.2159 637.134 57.4261 637.537 57.5909C637.946 57.7614 638.46 57.8466 639.08 57.8466C639.955 57.8466 640.679 57.6335 641.253 57.2074C641.827 56.7869 642.114 56.0938 642.114 55.1278V52.6477H641.96C641.801 52.9659 641.568 53.2926 641.261 53.6278C640.96 53.9631 640.56 54.2443 640.06 54.4716C639.565 54.6989 638.943 54.8125 638.193 54.8125C637.188 54.8125 636.276 54.5767 635.457 54.1051C634.645 53.6278 633.997 52.9176 633.514 51.9744C633.037 51.0256 632.798 49.8381 632.798 48.4119C632.798 46.9744 633.037 45.7614 633.514 44.7727C633.997 43.7784 634.648 43.0256 635.466 42.5142C636.284 41.9972 637.196 41.7386 638.202 41.7386C638.969 41.7386 639.599 41.8693 640.094 42.1307C640.594 42.3864 640.991 42.696 641.287 43.0597C641.582 43.4176 641.807 43.7557 641.96 44.0739H642.131V41.9091H645.173V55.2131C645.173 56.3324 644.906 57.2585 644.372 57.9915C643.838 58.7244 643.108 59.2727 642.182 59.6364C641.256 60 640.205 60.1818 639.028 60.1818ZM639.054 52.392C639.707 52.392 640.264 52.233 640.724 51.9148C641.185 51.5966 641.534 51.1392 641.773 50.5426C642.011 49.946 642.131 49.2301 642.131 48.3949C642.131 47.571 642.011 46.8494 641.773 46.2301C641.54 45.6108 641.193 45.1307 640.733 44.7898C640.278 44.4432 639.719 44.2699 639.054 44.2699C638.366 44.2699 637.793 44.4489 637.332 44.8068C636.872 45.1648 636.526 45.6562 636.293 46.2812C636.06 46.9006 635.943 47.6051 635.943 48.3949C635.943 49.196 636.06 49.8977 636.293 50.5C636.531 51.0966 636.881 51.5625 637.341 51.8977C637.807 52.2273 638.378 52.392 639.054 52.392Z" fill="black"/>
<path d="M1219.72 37.5455H1223.59L1228.77 50.1932H1228.98L1234.16 37.5455H1238.03V55H1234.99V43.0085H1234.83L1230.01 54.9489H1227.74L1222.92 42.983H1222.76V55H1219.72V37.5455ZM1245.1 55.2642C1244.27 55.2642 1243.53 55.1165 1242.86 54.821C1242.2 54.5199 1241.68 54.0767 1241.29 53.4915C1240.91 52.9062 1240.72 52.1847 1240.72 51.3267C1240.72 50.5881 1240.86 49.9773 1241.13 49.4943C1241.4 49.0114 1241.78 48.625 1242.25 48.3352C1242.72 48.0455 1243.25 47.8267 1243.84 47.679C1244.44 47.5256 1245.05 47.4148 1245.69 47.3466C1246.46 47.267 1247.08 47.196 1247.56 47.1335C1248.03 47.0653 1248.38 46.9631 1248.6 46.8267C1248.82 46.6847 1248.93 46.4659 1248.93 46.1705V46.1193C1248.93 45.4773 1248.74 44.9801 1248.36 44.6278C1247.98 44.2756 1247.43 44.0994 1246.71 44.0994C1245.96 44.0994 1245.36 44.2642 1244.91 44.5938C1244.48 44.9233 1244.18 45.3125 1244.03 45.7614L1241.15 45.3523C1241.38 44.5568 1241.75 43.892 1242.27 43.358C1242.8 42.8182 1243.43 42.4148 1244.19 42.1477C1244.95 41.875 1245.78 41.7386 1246.7 41.7386C1247.33 41.7386 1247.95 41.8125 1248.58 41.9602C1249.2 42.108 1249.78 42.3523 1250.29 42.6932C1250.81 43.0284 1251.22 43.4858 1251.54 44.0653C1251.86 44.6449 1252.01 45.3693 1252.01 46.2386V55H1249.05V53.2017H1248.95C1248.76 53.5653 1248.49 53.9062 1248.15 54.2244C1247.82 54.5369 1247.39 54.7898 1246.88 54.983C1246.38 55.1705 1245.78 55.2642 1245.1 55.2642ZM1245.9 52.9972C1246.52 52.9972 1247.06 52.875 1247.51 52.6307C1247.97 52.3807 1248.32 52.0511 1248.56 51.642C1248.81 51.233 1248.94 50.7869 1248.94 50.304V48.7614C1248.84 48.8409 1248.68 48.9148 1248.44 48.983C1248.22 49.0511 1247.96 49.1108 1247.68 49.1619C1247.39 49.2131 1247.11 49.2585 1246.83 49.2983C1246.55 49.3381 1246.31 49.3722 1246.11 49.4006C1245.65 49.4631 1245.24 49.5653 1244.87 49.7074C1244.51 49.8494 1244.22 50.0483 1244.01 50.304C1243.8 50.554 1243.7 50.8778 1243.7 51.2756C1243.7 51.8438 1243.9 52.2727 1244.32 52.5625C1244.73 52.8523 1245.26 52.9972 1245.9 52.9972ZM1255.12 55V41.9091H1258.11V44.0909H1258.24C1258.48 43.3352 1258.89 42.7528 1259.47 42.3438C1260.06 41.929 1260.72 41.7216 1261.47 41.7216C1261.64 41.7216 1261.84 41.7301 1262.05 41.7472C1262.26 41.7585 1262.44 41.7784 1262.58 41.8068V44.6449C1262.45 44.5994 1262.24 44.5597 1261.96 44.5256C1261.68 44.4858 1261.41 44.4659 1261.15 44.4659C1260.59 44.4659 1260.08 44.5881 1259.63 44.8324C1259.19 45.071 1258.84 45.4034 1258.59 45.8295C1258.33 46.2557 1258.2 46.7472 1258.2 47.304V55H1255.12ZM1267.44 50.892L1267.44 47.1676H1267.93L1272.63 41.9091H1276.24L1270.45 48.3523H1269.81L1267.44 50.892ZM1264.63 55V37.5455H1267.72V55H1264.63ZM1272.85 55L1268.59 49.0426L1270.67 46.8693L1276.54 55H1272.85ZM1283.55 55.2557C1282.24 55.2557 1281.11 54.983 1280.15 54.4375C1279.2 53.8864 1278.47 53.108 1277.96 52.1023C1277.45 51.0909 1277.19 49.9006 1277.19 48.5312C1277.19 47.1847 1277.45 46.0028 1277.96 44.9858C1278.48 43.9631 1279.2 43.1676 1280.13 42.5994C1281.05 42.0256 1282.14 41.7386 1283.39 41.7386C1284.2 41.7386 1284.96 41.8693 1285.67 42.1307C1286.4 42.3864 1287.03 42.7841 1287.58 43.3239C1288.14 43.8636 1288.58 44.5511 1288.9 45.3864C1289.21 46.2159 1289.37 47.2045 1289.37 48.3523V49.2983H1278.64V47.2188H1286.42C1286.41 46.6278 1286.28 46.1023 1286.03 45.642C1285.78 45.1761 1285.43 44.8097 1284.98 44.5426C1284.54 44.2756 1284.02 44.142 1283.43 44.142C1282.8 44.142 1282.25 44.2955 1281.77 44.6023C1281.29 44.9034 1280.92 45.3011 1280.65 45.7955C1280.39 46.2841 1280.26 46.821 1280.25 47.4062V49.2216C1280.25 49.983 1280.39 50.6364 1280.67 51.1818C1280.95 51.7216 1281.34 52.1364 1281.84 52.4261C1282.34 52.7102 1282.92 52.8523 1283.6 52.8523C1284.04 52.8523 1284.45 52.7898 1284.81 52.6648C1285.18 52.5341 1285.49 52.3438 1285.76 52.0938C1286.03 51.8438 1286.23 51.5341 1286.37 51.1648L1289.25 51.4886C1289.06 52.25 1288.72 52.9148 1288.21 53.483C1287.7 54.0455 1287.05 54.483 1286.26 54.7955C1285.47 55.1023 1284.57 55.2557 1283.55 55.2557ZM1298.52 41.9091V44.2955H1291V41.9091H1298.52ZM1292.85 38.7727H1295.94V51.0625C1295.94 51.4773 1296 51.7955 1296.13 52.017C1296.26 52.233 1296.43 52.3807 1296.64 52.4602C1296.85 52.5398 1297.08 52.5795 1297.34 52.5795C1297.53 52.5795 1297.71 52.5653 1297.86 52.5369C1298.03 52.5085 1298.15 52.483 1298.24 52.4602L1298.76 54.8722C1298.59 54.929 1298.36 54.9915 1298.05 55.0597C1297.75 55.1278 1297.38 55.1676 1296.94 55.179C1296.17 55.2017 1295.48 55.0852 1294.86 54.8295C1294.24 54.5682 1293.75 54.1648 1293.38 53.6193C1293.02 53.0739 1292.85 52.392 1292.85 51.5739V38.7727ZM1301.1 55V41.9091H1304.19V55H1301.1ZM1302.65 40.0511C1302.16 40.0511 1301.74 39.8892 1301.39 39.5653C1301.04 39.2358 1300.86 38.8409 1300.86 38.3807C1300.86 37.9148 1301.04 37.5199 1301.39 37.196C1301.74 36.8665 1302.16 36.7017 1302.65 36.7017C1303.15 36.7017 1303.57 36.8665 1303.91 37.196C1304.27 37.5199 1304.44 37.9148 1304.44 38.3807C1304.44 38.8409 1304.27 39.2358 1303.91 39.5653C1303.57 39.8892 1303.15 40.0511 1302.65 40.0511ZM1310.44 47.3295V55H1307.36V41.9091H1310.31V44.1335H1310.46C1310.76 43.4006 1311.24 42.8182 1311.9 42.3864C1312.57 41.9545 1313.39 41.7386 1314.36 41.7386C1315.27 41.7386 1316.05 41.9318 1316.73 42.3182C1317.4 42.7045 1317.92 43.2642 1318.29 43.9972C1318.67 44.7301 1318.85 45.6193 1318.85 46.6648V55H1315.76V47.142C1315.76 46.267 1315.53 45.5824 1315.08 45.0881C1314.63 44.5937 1314.01 44.3466 1313.21 44.3466C1312.67 44.3466 1312.19 44.4659 1311.77 44.7045C1311.36 44.9375 1311.03 45.2756 1310.79 45.7188C1310.56 46.1619 1310.44 46.6989 1310.44 47.3295ZM1327.68 60.1818C1326.57 60.1818 1325.62 60.0313 1324.82 59.7301C1324.03 59.4347 1323.39 59.0369 1322.9 58.5369C1322.42 58.0369 1322.09 57.483 1321.9 56.875L1324.68 56.2017C1324.8 56.4574 1324.98 56.7102 1325.22 56.9602C1325.46 57.2159 1325.78 57.4261 1326.19 57.5909C1326.59 57.7614 1327.11 57.8466 1327.73 57.8466C1328.6 57.8466 1329.33 57.6335 1329.9 57.2074C1330.48 56.7869 1330.76 56.0938 1330.76 55.1278V52.6477H1330.61C1330.45 52.9659 1330.22 53.2926 1329.91 53.6278C1329.61 53.9631 1329.21 54.2443 1328.71 54.4716C1328.21 54.6989 1327.59 54.8125 1326.84 54.8125C1325.84 54.8125 1324.92 54.5767 1324.11 54.1051C1323.29 53.6278 1322.65 52.9176 1322.16 51.9744C1321.69 51.0256 1321.45 49.8381 1321.45 48.4119C1321.45 46.9744 1321.69 45.7614 1322.16 44.7727C1322.65 43.7784 1323.3 43.0256 1324.11 42.5142C1324.93 41.9972 1325.84 41.7386 1326.85 41.7386C1327.62 41.7386 1328.25 41.8693 1328.74 42.1307C1329.24 42.3864 1329.64 42.696 1329.94 43.0597C1330.23 43.4176 1330.46 43.7557 1330.61 44.0739H1330.78V41.9091H1333.82V55.2131C1333.82 56.3324 1333.55 57.2585 1333.02 57.9915C1332.49 58.7244 1331.76 59.2727 1330.83 59.6364C1329.9 60 1328.85 60.1818 1327.68 60.1818ZM1327.7 52.392C1328.36 52.392 1328.91 52.233 1329.37 51.9148C1329.83 51.5966 1330.18 51.1392 1330.42 50.5426C1330.66 49.946 1330.78 49.2301 1330.78 48.3949C1330.78 47.571 1330.66 46.8494 1330.42 46.2301C1330.19 45.6108 1329.84 45.1307 1329.38 44.7898C1328.93 44.4432 1328.37 44.2699 1327.7 44.2699C1327.01 44.2699 1326.44 44.4489 1325.98 44.8068C1325.52 45.1648 1325.17 45.6562 1324.94 46.2812C1324.71 46.9006 1324.59 47.6051 1324.59 48.3949C1324.59 49.196 1324.71 49.8977 1324.94 50.5C1325.18 51.0966 1325.53 51.5625 1325.99 51.8977C1326.46 52.2273 1327.03 52.392 1327.7 52.392Z" fill="black"/>
<path d="M272.722 55V37.5455H279.403C280.665 37.5455 281.713 37.7443 282.548 38.142C283.389 38.5341 284.017 39.071 284.432 39.7528C284.852 40.4347 285.062 41.2074 285.062 42.071C285.062 42.7812 284.926 43.3892 284.653 43.8949C284.381 44.3949 284.014 44.8011 283.554 45.1136C283.094 45.4261 282.58 45.6506 282.011 45.7869V45.9574C282.631 45.9915 283.224 46.1818 283.793 46.5284C284.366 46.8693 284.835 47.3523 285.199 47.9773C285.563 48.6023 285.744 49.358 285.744 50.2443C285.744 51.1477 285.526 51.9602 285.088 52.6818C284.651 53.3977 283.991 53.9631 283.111 54.3778C282.23 54.7926 281.122 55 279.787 55H272.722ZM275.884 52.358H279.284C280.432 52.358 281.259 52.1392 281.764 51.7017C282.276 51.2585 282.531 50.6903 282.531 49.9972C282.531 49.4801 282.403 49.0142 282.148 48.5994C281.892 48.179 281.528 47.8494 281.057 47.6108C280.585 47.3665 280.023 47.2443 279.369 47.2443H275.884V52.358ZM275.884 44.9688H279.011C279.557 44.9688 280.048 44.8693 280.486 44.6705C280.923 44.4659 281.267 44.179 281.517 43.8097C281.773 43.4347 281.901 42.9915 281.901 42.4801C281.901 41.804 281.662 41.2472 281.185 40.8097C280.713 40.3722 280.011 40.1534 279.08 40.1534H275.884V44.9688ZM296.702 49.4943V41.9091H299.788V55H296.796V52.6733H296.66C296.364 53.4062 295.879 54.0057 295.202 54.4716C294.532 54.9375 293.705 55.1705 292.722 55.1705C291.864 55.1705 291.106 54.9801 290.447 54.5994C289.793 54.2131 289.282 53.6534 288.913 52.9205C288.543 52.1818 288.359 51.2898 288.359 50.2443V41.9091H291.444V49.767C291.444 50.5966 291.671 51.2557 292.126 51.7443C292.58 52.233 293.177 52.4773 293.915 52.4773C294.37 52.4773 294.81 52.3665 295.237 52.1449C295.663 51.9233 296.012 51.5938 296.285 51.1562C296.563 50.7131 296.702 50.1591 296.702 49.4943ZM313.307 45.3693L310.494 45.6761C310.415 45.392 310.276 45.125 310.077 44.875C309.884 44.625 309.622 44.4233 309.293 44.2699C308.963 44.1165 308.56 44.0398 308.082 44.0398C307.44 44.0398 306.901 44.179 306.463 44.4574C306.031 44.7358 305.818 45.0966 305.824 45.5398C305.818 45.9205 305.957 46.2301 306.241 46.4688C306.531 46.7074 307.009 46.9034 307.673 47.0568L309.906 47.5341C311.145 47.8011 312.065 48.2244 312.668 48.804C313.276 49.3835 313.582 50.142 313.588 51.0795C313.582 51.9034 313.341 52.6307 312.864 53.2614C312.392 53.8864 311.736 54.375 310.895 54.7273C310.054 55.0795 309.088 55.2557 307.997 55.2557C306.395 55.2557 305.105 54.9205 304.128 54.25C303.151 53.5739 302.568 52.6335 302.381 51.429L305.389 51.1392C305.526 51.7301 305.815 52.1761 306.259 52.4773C306.702 52.7784 307.278 52.929 307.989 52.929C308.722 52.929 309.31 52.7784 309.753 52.4773C310.202 52.1761 310.426 51.804 310.426 51.3608C310.426 50.9858 310.281 50.6761 309.991 50.4318C309.707 50.1875 309.264 50 308.662 49.8693L306.429 49.4006C305.173 49.1392 304.244 48.6989 303.642 48.0795C303.04 47.4545 302.741 46.6648 302.747 45.7102C302.741 44.9034 302.96 44.2045 303.403 43.6136C303.852 43.017 304.474 42.5568 305.27 42.233C306.071 41.9034 306.994 41.7386 308.04 41.7386C309.574 41.7386 310.781 42.0653 311.662 42.7188C312.548 43.3722 313.097 44.2557 313.307 45.3693ZM316.132 55V41.9091H319.217V55H316.132ZM317.683 40.0511C317.195 40.0511 316.774 39.8892 316.422 39.5653C316.07 39.2358 315.893 38.8409 315.893 38.3807C315.893 37.9148 316.07 37.5199 316.422 37.196C316.774 36.8665 317.195 36.7017 317.683 36.7017C318.178 36.7017 318.598 36.8665 318.945 37.196C319.297 37.5199 319.473 37.9148 319.473 38.3807C319.473 38.8409 319.297 39.2358 318.945 39.5653C318.598 39.8892 318.178 40.0511 317.683 40.0511ZM325.475 47.3295V55H322.39V41.9091H325.339V44.1335H325.492C325.793 43.4006 326.273 42.8182 326.933 42.3864C327.597 41.9545 328.418 41.7386 329.396 41.7386C330.299 41.7386 331.086 41.9318 331.756 42.3182C332.433 42.7045 332.955 43.2642 333.325 43.9972C333.7 44.7301 333.884 45.6193 333.879 46.6648V55H330.793V47.142C330.793 46.267 330.566 45.5824 330.112 45.0881C329.663 44.5937 329.04 44.3466 328.245 44.3466C327.705 44.3466 327.225 44.4659 326.805 44.7045C326.39 44.9375 326.063 45.2756 325.825 45.7188C325.592 46.1619 325.475 46.6989 325.475 47.3295ZM342.81 55.2557C341.498 55.2557 340.364 54.983 339.41 54.4375C338.461 53.8864 337.731 53.108 337.219 52.1023C336.708 51.0909 336.452 49.9006 336.452 48.5312C336.452 47.1847 336.708 46.0028 337.219 44.9858C337.737 43.9631 338.458 43.1676 339.384 42.5994C340.31 42.0256 341.398 41.7386 342.648 41.7386C343.455 41.7386 344.217 41.8693 344.933 42.1307C345.654 42.3864 346.29 42.7841 346.842 43.3239C347.398 43.8636 347.836 44.5511 348.154 45.3864C348.472 46.2159 348.631 47.2045 348.631 48.3523V49.2983H337.901V47.2188H345.674C345.668 46.6278 345.54 46.1023 345.29 45.642C345.04 45.1761 344.691 44.8097 344.242 44.5426C343.799 44.2756 343.282 44.142 342.691 44.142C342.06 44.142 341.506 44.2955 341.029 44.6023C340.552 44.9034 340.18 45.3011 339.913 45.7955C339.651 46.2841 339.518 46.821 339.512 47.4062V49.2216C339.512 49.983 339.651 50.6364 339.93 51.1818C340.208 51.7216 340.597 52.1364 341.097 52.4261C341.597 52.7102 342.183 52.8523 342.853 52.8523C343.302 52.8523 343.708 52.7898 344.072 52.6648C344.435 52.5341 344.751 52.3438 345.018 52.0938C345.285 51.8438 345.487 51.5341 345.623 51.1648L348.504 51.4886C348.322 52.25 347.975 52.9148 347.464 53.483C346.958 54.0455 346.31 54.483 345.521 54.7955C344.731 55.1023 343.827 55.2557 342.81 55.2557ZM361.588 45.3693L358.776 45.6761C358.696 45.392 358.557 45.125 358.358 44.875C358.165 44.625 357.903 44.4233 357.574 44.2699C357.244 44.1165 356.841 44.0398 356.364 44.0398C355.722 44.0398 355.182 44.179 354.744 44.4574C354.312 44.7358 354.099 45.0966 354.105 45.5398C354.099 45.9205 354.239 46.2301 354.523 46.4688C354.813 46.7074 355.29 46.9034 355.955 47.0568L358.188 47.5341C359.426 47.8011 360.347 48.2244 360.949 48.804C361.557 49.3835 361.864 50.142 361.869 51.0795C361.864 51.9034 361.622 52.6307 361.145 53.2614C360.673 53.8864 360.017 54.375 359.176 54.7273C358.335 55.0795 357.369 55.2557 356.278 55.2557C354.676 55.2557 353.386 54.9205 352.409 54.25C351.432 53.5739 350.849 52.6335 350.662 51.429L353.67 51.1392C353.807 51.7301 354.097 52.1761 354.54 52.4773C354.983 52.7784 355.56 52.929 356.27 52.929C357.003 52.929 357.591 52.7784 358.034 52.4773C358.483 52.1761 358.707 51.804 358.707 51.3608C358.707 50.9858 358.563 50.6761 358.273 50.4318C357.989 50.1875 357.545 50 356.943 49.8693L354.71 49.4006C353.455 49.1392 352.526 48.6989 351.923 48.0795C351.321 47.4545 351.023 46.6648 351.028 45.7102C351.023 44.9034 351.241 44.2045 351.685 43.6136C352.134 43.017 352.756 42.5568 353.551 42.233C354.352 41.9034 355.276 41.7386 356.321 41.7386C357.855 41.7386 359.063 42.0653 359.943 42.7188C360.83 43.3722 361.378 44.2557 361.588 45.3693ZM374.76 45.3693L371.947 45.6761C371.868 45.392 371.729 45.125 371.53 44.875C371.337 44.625 371.075 44.4233 370.746 44.2699C370.416 44.1165 370.013 44.0398 369.536 44.0398C368.893 44.0398 368.354 44.179 367.916 44.4574C367.484 44.7358 367.271 45.0966 367.277 45.5398C367.271 45.9205 367.411 46.2301 367.695 46.4688C367.984 46.7074 368.462 46.9034 369.126 47.0568L371.359 47.5341C372.598 47.8011 373.518 48.2244 374.121 48.804C374.729 49.3835 375.036 50.142 375.041 51.0795C375.036 51.9034 374.794 52.6307 374.317 53.2614C373.845 53.8864 373.189 54.375 372.348 54.7273C371.507 55.0795 370.541 55.2557 369.45 55.2557C367.848 55.2557 366.558 54.9205 365.581 54.25C364.604 53.5739 364.021 52.6335 363.834 51.429L366.842 51.1392C366.979 51.7301 367.268 52.1761 367.712 52.4773C368.155 52.7784 368.732 52.929 369.442 52.929C370.175 52.929 370.763 52.7784 371.206 52.4773C371.655 52.1761 371.879 51.804 371.879 51.3608C371.879 50.9858 371.734 50.6761 371.445 50.4318C371.161 50.1875 370.717 50 370.115 49.8693L367.882 49.4006C366.626 49.1392 365.697 48.6989 365.095 48.0795C364.493 47.4545 364.195 46.6648 364.2 45.7102C364.195 44.9034 364.413 44.2045 364.857 43.6136C365.305 43.017 365.928 42.5568 366.723 42.233C367.524 41.9034 368.447 41.7386 369.493 41.7386C371.027 41.7386 372.234 42.0653 373.115 42.7188C374.001 43.3722 374.55 44.2557 374.76 45.3693Z" fill="black"/>
<path d="M668.884 37.5455V55H665.722V37.5455H668.884ZM671.54 40.196V37.5455H685.467V40.196H680.072V55H676.935V40.196H671.54ZM699.184 55.2557C697.991 55.2557 696.965 55.0398 696.107 54.608C695.249 54.1761 694.587 53.5938 694.121 52.8608C693.661 52.1222 693.431 51.2898 693.431 50.3636C693.431 49.6648 693.573 49.0455 693.857 48.5057C694.147 47.9659 694.545 47.4659 695.05 47.0057C695.562 46.5455 696.153 46.0881 696.823 45.6335L699.917 43.5284C700.371 43.233 700.715 42.9205 700.948 42.5909C701.187 42.2614 701.306 41.875 701.306 41.4318C701.306 41.0568 701.147 40.7017 700.829 40.3665C700.516 40.0312 700.085 39.8636 699.533 39.8636C699.164 39.8636 698.837 39.9517 698.553 40.1278C698.275 40.2983 698.056 40.5227 697.897 40.8011C697.744 41.0795 697.667 41.375 697.667 41.6875C697.667 42.0682 697.772 42.4545 697.982 42.8466C698.198 43.2386 698.477 43.6449 698.817 44.0653C699.164 44.4858 699.533 44.9318 699.925 45.4034L708.116 55H704.775L697.974 47.2102C697.468 46.6193 696.979 46.0369 696.508 45.4631C696.042 44.8892 695.658 44.2926 695.357 43.6733C695.062 43.0483 694.914 42.3722 694.914 41.6449C694.914 40.821 695.104 40.0852 695.485 39.4375C695.866 38.7841 696.397 38.2699 697.079 37.8949C697.766 37.5199 698.57 37.3324 699.491 37.3324C700.411 37.3324 701.201 37.5142 701.86 37.8778C702.519 38.2415 703.028 38.7244 703.386 39.3267C703.744 39.929 703.923 40.5852 703.923 41.2955C703.923 42.1193 703.718 42.858 703.309 43.5114C702.9 44.1591 702.332 44.7472 701.604 45.2756L698.076 47.858C697.496 48.2784 697.082 48.7045 696.832 49.1364C696.582 49.5625 696.457 49.9261 696.457 50.2273C696.457 50.6875 696.573 51.1051 696.806 51.4801C697.039 51.8551 697.366 52.1562 697.786 52.3835C698.212 52.6051 698.71 52.7159 699.278 52.7159C699.903 52.7159 700.519 52.5767 701.127 52.2983C701.735 52.0142 702.289 51.6108 702.789 51.0881C703.289 50.5653 703.687 49.9403 703.982 49.2131C704.278 48.4801 704.425 47.6676 704.425 46.7756H707.076C707.076 47.8778 706.954 48.8381 706.71 49.6562C706.465 50.4688 706.15 51.1562 705.763 51.7188C705.377 52.2756 704.968 52.7216 704.536 53.0568C704.4 53.1534 704.269 53.25 704.144 53.3466C704.019 53.4432 703.888 53.5398 703.752 53.6364C703.138 54.1932 702.42 54.6023 701.596 54.8636C700.778 55.125 699.974 55.2557 699.184 55.2557ZM725.457 42.3438C725.378 41.5994 725.043 41.0199 724.452 40.6051C723.866 40.1903 723.105 39.983 722.168 39.983C721.509 39.983 720.943 40.0824 720.472 40.2812C720 40.4801 719.639 40.75 719.389 41.0909C719.139 41.4318 719.011 41.821 719.006 42.2585C719.006 42.6222 719.088 42.9375 719.253 43.2045C719.423 43.4716 719.653 43.6989 719.943 43.8864C720.233 44.0682 720.554 44.2216 720.906 44.3466C721.259 44.4716 721.614 44.5767 721.972 44.6619L723.608 45.071C724.267 45.2244 724.901 45.4318 725.509 45.6932C726.122 45.9545 726.67 46.2841 727.153 46.6818C727.642 47.0795 728.028 47.5597 728.312 48.1222C728.597 48.6847 728.739 49.3437 728.739 50.0994C728.739 51.1222 728.477 52.0227 727.955 52.8011C727.432 53.5739 726.676 54.179 725.688 54.6165C724.705 55.0483 723.514 55.2642 722.116 55.2642C720.759 55.2642 719.58 55.054 718.58 54.6335C717.585 54.2131 716.807 53.5994 716.244 52.7926C715.688 51.9858 715.386 51.0028 715.341 49.8438H718.452C718.497 50.4517 718.685 50.9574 719.014 51.3608C719.344 51.7642 719.773 52.0653 720.301 52.2642C720.835 52.4631 721.432 52.5625 722.091 52.5625C722.778 52.5625 723.381 52.4602 723.898 52.2557C724.42 52.0455 724.83 51.7557 725.125 51.3864C725.42 51.0114 725.571 50.5739 725.577 50.0739C725.571 49.6193 725.438 49.2443 725.176 48.9489C724.915 48.6477 724.548 48.3977 724.077 48.1989C723.611 47.9943 723.065 47.8125 722.44 47.6534L720.455 47.142C719.017 46.7727 717.881 46.2131 717.045 45.4631C716.216 44.7074 715.801 43.7045 715.801 42.4545C715.801 41.4261 716.08 40.5256 716.636 39.7528C717.199 38.9801 717.963 38.3807 718.929 37.9545C719.895 37.5227 720.989 37.3068 722.21 37.3068C723.449 37.3068 724.534 37.5227 725.466 37.9545C726.403 38.3807 727.139 38.9744 727.673 39.7358C728.207 40.4915 728.483 41.3608 728.5 42.3438H725.457ZM737.131 55.2557C735.853 55.2557 734.745 54.9744 733.808 54.4119C732.87 53.8494 732.143 53.0625 731.626 52.0511C731.114 51.0398 730.859 49.858 730.859 48.5057C730.859 47.1534 731.114 45.9687 731.626 44.9517C732.143 43.9347 732.87 43.1449 733.808 42.5824C734.745 42.0199 735.853 41.7386 737.131 41.7386C738.41 41.7386 739.518 42.0199 740.455 42.5824C741.393 43.1449 742.117 43.9347 742.629 44.9517C743.146 45.9687 743.404 47.1534 743.404 48.5057C743.404 49.858 743.146 51.0398 742.629 52.0511C742.117 53.0625 741.393 53.8494 740.455 54.4119C739.518 54.9744 738.41 55.2557 737.131 55.2557ZM737.148 52.7841C737.842 52.7841 738.421 52.5937 738.887 52.2131C739.353 51.8267 739.7 51.3097 739.927 50.6619C740.16 50.0142 740.276 49.2926 740.276 48.4972C740.276 47.696 740.16 46.9716 739.927 46.3239C739.7 45.6705 739.353 45.1506 738.887 44.7642C738.421 44.3778 737.842 44.1847 737.148 44.1847C736.438 44.1847 735.847 44.3778 735.376 44.7642C734.91 45.1506 734.56 45.6705 734.327 46.3239C734.1 46.9716 733.987 47.696 733.987 48.4972C733.987 49.2926 734.1 50.0142 734.327 50.6619C734.56 51.3097 734.91 51.8267 735.376 52.2131C735.847 52.5937 736.438 52.7841 737.148 52.7841ZM752.653 41.9091V44.2955H744.915V41.9091H752.653ZM746.849 55V40.6733C746.849 39.7926 747.031 39.0597 747.395 38.4744C747.764 37.8892 748.259 37.4517 748.878 37.1619C749.497 36.8722 750.185 36.7273 750.94 36.7273C751.474 36.7273 751.949 36.7699 752.364 36.8551C752.778 36.9403 753.085 37.017 753.284 37.0852L752.67 39.4716C752.54 39.4318 752.375 39.392 752.176 39.3523C751.977 39.3068 751.756 39.2841 751.511 39.2841C750.938 39.2841 750.531 39.4233 750.293 39.7017C750.06 39.9744 749.943 40.3665 749.943 40.8778V55H746.849ZM761.607 41.9091V44.2955H754.081V41.9091H761.607ZM755.939 38.7727H759.024V51.0625C759.024 51.4773 759.087 51.7955 759.212 52.017C759.342 52.233 759.513 52.3807 759.723 52.4602C759.933 52.5398 760.166 52.5795 760.422 52.5795C760.615 52.5795 760.791 52.5653 760.95 52.5369C761.115 52.5085 761.24 52.483 761.325 52.4602L761.845 54.8722C761.68 54.929 761.445 54.9915 761.138 55.0597C760.837 55.1278 760.467 55.1676 760.03 55.179C759.257 55.2017 758.561 55.0852 757.942 54.8295C757.322 54.5682 756.831 54.1648 756.467 53.6193C756.109 53.0739 755.933 52.392 755.939 51.5739V38.7727ZM766.888 55L763.19 41.9091H766.335L768.636 51.1136H768.755L771.107 41.9091H774.218L776.57 51.0625H776.698L778.965 41.9091H782.119L778.411 55H775.198L772.744 46.1534H772.565L770.11 55H766.888ZM788.04 55.2642C787.21 55.2642 786.463 55.1165 785.798 54.821C785.139 54.5199 784.616 54.0767 784.23 53.4915C783.849 52.9062 783.659 52.1847 783.659 51.3267C783.659 50.5881 783.795 49.9773 784.068 49.4943C784.341 49.0114 784.713 48.625 785.185 48.3352C785.656 48.0455 786.188 47.8267 786.778 47.679C787.375 47.5256 787.991 47.4148 788.628 47.3466C789.395 47.267 790.017 47.196 790.494 47.1335C790.972 47.0653 791.318 46.9631 791.534 46.8267C791.756 46.6847 791.866 46.4659 791.866 46.1705V46.1193C791.866 45.4773 791.676 44.9801 791.295 44.6278C790.915 44.2756 790.366 44.0994 789.651 44.0994C788.895 44.0994 788.295 44.2642 787.852 44.5938C787.415 44.9233 787.119 45.3125 786.966 45.7614L784.085 45.3523C784.313 44.5568 784.688 43.892 785.21 43.358C785.733 42.8182 786.372 42.4148 787.128 42.1477C787.884 41.875 788.719 41.7386 789.634 41.7386C790.264 41.7386 790.892 41.8125 791.517 41.9602C792.142 42.108 792.713 42.3523 793.23 42.6932C793.747 43.0284 794.162 43.4858 794.474 44.0653C794.793 44.6449 794.952 45.3693 794.952 46.2386V55H791.986V53.2017H791.884C791.696 53.5653 791.432 53.9062 791.091 54.2244C790.756 54.5369 790.332 54.7898 789.821 54.983C789.315 55.1705 788.722 55.2642 788.04 55.2642ZM788.841 52.9972C789.46 52.9972 789.997 52.875 790.452 52.6307C790.906 52.3807 791.256 52.0511 791.5 51.642C791.75 51.233 791.875 50.7869 791.875 50.304V48.7614C791.778 48.8409 791.614 48.9148 791.381 48.983C791.153 49.0511 790.898 49.1108 790.614 49.1619C790.33 49.2131 790.048 49.2585 789.77 49.2983C789.491 49.3381 789.25 49.3722 789.045 49.4006C788.585 49.4631 788.173 49.5653 787.81 49.7074C787.446 49.8494 787.159 50.0483 786.949 50.304C786.739 50.554 786.634 50.8778 786.634 51.2756C786.634 51.8438 786.841 52.2727 787.256 52.5625C787.67 52.8523 788.199 52.9972 788.841 52.9972ZM798.054 55V41.9091H801.045V44.0909H801.182C801.42 43.3352 801.83 42.7528 802.409 42.3438C802.994 41.929 803.662 41.7216 804.412 41.7216C804.582 41.7216 804.773 41.7301 804.983 41.7472C805.199 41.7585 805.378 41.7784 805.52 41.8068V44.6449C805.389 44.5994 805.182 44.5597 804.898 44.5256C804.619 44.4858 804.349 44.4659 804.088 44.4659C803.526 44.4659 803.02 44.5881 802.571 44.8324C802.128 45.071 801.778 45.4034 801.523 45.8295C801.267 46.2557 801.139 46.7472 801.139 47.304V55H798.054ZM812.826 55.2557C811.513 55.2557 810.38 54.983 809.425 54.4375C808.477 53.8864 807.746 53.108 807.235 52.1023C806.724 51.0909 806.468 49.9006 806.468 48.5312C806.468 47.1847 806.724 46.0028 807.235 44.9858C807.752 43.9631 808.474 43.1676 809.4 42.5994C810.326 42.0256 811.414 41.7386 812.664 41.7386C813.471 41.7386 814.232 41.8693 814.948 42.1307C815.67 42.3864 816.306 42.7841 816.857 43.3239C817.414 43.8636 817.852 44.5511 818.17 45.3864C818.488 46.2159 818.647 47.2045 818.647 48.3523V49.2983H807.917V47.2188H815.69C815.684 46.6278 815.556 46.1023 815.306 45.642C815.056 45.1761 814.707 44.8097 814.258 44.5426C813.815 44.2756 813.298 44.142 812.707 44.142C812.076 44.142 811.522 44.2955 811.045 44.6023C810.567 44.9034 810.195 45.3011 809.928 45.7955C809.667 46.2841 809.533 46.821 809.528 47.4062V49.2216C809.528 49.983 809.667 50.6364 809.945 51.1818C810.224 51.7216 810.613 52.1364 811.113 52.4261C811.613 52.7102 812.198 52.8523 812.869 52.8523C813.317 52.8523 813.724 52.7898 814.087 52.6648C814.451 52.5341 814.766 52.3438 815.033 52.0938C815.3 51.8438 815.502 51.5341 815.638 51.1648L818.519 51.4886C818.337 52.25 817.991 52.9148 817.479 53.483C816.974 54.0455 816.326 54.483 815.536 54.7955C814.746 55.1023 813.843 55.2557 812.826 55.2557Z" fill="black"/>
<path d="M840.722 55V37.5455H847.267C848.608 37.5455 849.733 37.7955 850.642 38.2955C851.557 38.7955 852.247 39.483 852.713 40.358C853.185 41.2273 853.42 42.2159 853.42 43.3239C853.42 44.4432 853.185 45.4375 852.713 46.3068C852.241 47.1761 851.545 47.8608 850.625 48.3608C849.705 48.8551 848.571 49.1023 847.224 49.1023H842.886V46.5028H846.798C847.582 46.5028 848.224 46.3665 848.724 46.0938C849.224 45.821 849.594 45.446 849.832 44.9688C850.077 44.4915 850.199 43.9432 850.199 43.3239C850.199 42.7045 850.077 42.1591 849.832 41.6875C849.594 41.2159 849.222 40.8494 848.716 40.5881C848.216 40.321 847.571 40.1875 846.781 40.1875H843.884V55H840.722ZM861.638 55.2557C860.326 55.2557 859.192 54.983 858.238 54.4375C857.289 53.8864 856.559 53.108 856.048 52.1023C855.536 51.0909 855.281 49.9006 855.281 48.5312C855.281 47.1847 855.536 46.0028 856.048 44.9858C856.565 43.9631 857.286 43.1676 858.212 42.5994C859.138 42.0256 860.227 41.7386 861.477 41.7386C862.283 41.7386 863.045 41.8693 863.761 42.1307C864.482 42.3864 865.119 42.7841 865.67 43.3239C866.227 43.8636 866.664 44.5511 866.982 45.3864C867.3 46.2159 867.46 47.2045 867.46 48.3523V49.2983H856.729V47.2188H864.502C864.496 46.6278 864.369 46.1023 864.119 45.642C863.869 45.1761 863.519 44.8097 863.07 44.5426C862.627 44.2756 862.11 44.142 861.519 44.142C860.888 44.142 860.335 44.2955 859.857 44.6023C859.38 44.9034 859.008 45.3011 858.741 45.7955C858.479 46.2841 858.346 46.821 858.34 47.4062V49.2216C858.34 49.983 858.479 50.6364 858.758 51.1818C859.036 51.7216 859.425 52.1364 859.925 52.4261C860.425 52.7102 861.011 52.8523 861.681 52.8523C862.13 52.8523 862.536 52.7898 862.9 52.6648C863.263 52.5341 863.579 52.3438 863.846 52.0938C864.113 51.8438 864.315 51.5341 864.451 51.1648L867.332 51.4886C867.15 52.25 866.803 52.9148 866.292 53.483C865.786 54.0455 865.138 54.483 864.349 54.7955C863.559 55.1023 862.656 55.2557 861.638 55.2557ZM870.07 55V41.9091H873.061V44.0909H873.197C873.436 43.3352 873.845 42.7528 874.425 42.3438C875.01 41.929 875.678 41.7216 876.428 41.7216C876.598 41.7216 876.788 41.7301 876.999 41.7472C877.214 41.7585 877.393 41.7784 877.536 41.8068V44.6449C877.405 44.5994 877.197 44.5597 876.913 44.5256C876.635 44.4858 876.365 44.4659 876.104 44.4659C875.541 44.4659 875.036 44.5881 874.587 44.8324C874.143 45.071 873.794 45.4034 873.538 45.8295C873.283 46.2557 873.155 46.7472 873.155 47.304V55H870.07ZM889.932 45.3693L887.119 45.6761C887.04 45.392 886.901 45.125 886.702 44.875C886.509 44.625 886.247 44.4233 885.918 44.2699C885.588 44.1165 885.185 44.0398 884.707 44.0398C884.065 44.0398 883.526 44.179 883.088 44.4574C882.656 44.7358 882.443 45.0966 882.449 45.5398C882.443 45.9205 882.582 46.2301 882.866 46.4688C883.156 46.7074 883.634 46.9034 884.298 47.0568L886.531 47.5341C887.77 47.8011 888.69 48.2244 889.293 48.804C889.901 49.3835 890.207 50.142 890.213 51.0795C890.207 51.9034 889.966 52.6307 889.489 53.2614C889.017 53.8864 888.361 54.375 887.52 54.7273C886.679 55.0795 885.713 55.2557 884.622 55.2557C883.02 55.2557 881.73 54.9205 880.753 54.25C879.776 53.5739 879.193 52.6335 879.006 51.429L882.014 51.1392C882.151 51.7301 882.44 52.1761 882.884 52.4773C883.327 52.7784 883.903 52.929 884.614 52.929C885.347 52.929 885.935 52.7784 886.378 52.4773C886.827 52.1761 887.051 51.804 887.051 51.3608C887.051 50.9858 886.906 50.6761 886.616 50.4318C886.332 50.1875 885.889 50 885.287 49.8693L883.054 49.4006C881.798 49.1392 880.869 48.6989 880.267 48.0795C879.665 47.4545 879.366 46.6648 879.372 45.7102C879.366 44.9034 879.585 44.2045 880.028 43.6136C880.477 43.017 881.099 42.5568 881.895 42.233C882.696 41.9034 883.619 41.7386 884.665 41.7386C886.199 41.7386 887.406 42.0653 888.287 42.7188C889.173 43.3722 889.722 44.2557 889.932 45.3693ZM898.467 55.2557C897.189 55.2557 896.081 54.9744 895.143 54.4119C894.206 53.8494 893.479 53.0625 892.962 52.0511C892.45 51.0398 892.195 49.858 892.195 48.5057C892.195 47.1534 892.45 45.9687 892.962 44.9517C893.479 43.9347 894.206 43.1449 895.143 42.5824C896.081 42.0199 897.189 41.7386 898.467 41.7386C899.746 41.7386 900.854 42.0199 901.791 42.5824C902.729 43.1449 903.453 43.9347 903.964 44.9517C904.482 45.9687 904.74 47.1534 904.74 48.5057C904.74 49.858 904.482 51.0398 903.964 52.0511C903.453 53.0625 902.729 53.8494 901.791 54.4119C900.854 54.9744 899.746 55.2557 898.467 55.2557ZM898.484 52.7841C899.178 52.7841 899.757 52.5937 900.223 52.2131C900.689 51.8267 901.036 51.3097 901.263 50.6619C901.496 50.0142 901.612 49.2926 901.612 48.4972C901.612 47.696 901.496 46.9716 901.263 46.3239C901.036 45.6705 900.689 45.1506 900.223 44.7642C899.757 44.3778 899.178 44.1847 898.484 44.1847C897.774 44.1847 897.183 44.3778 896.712 44.7642C896.246 45.1506 895.896 45.6705 895.663 46.3239C895.436 46.9716 895.322 47.696 895.322 48.4972C895.322 49.2926 895.436 50.0142 895.663 50.6619C895.896 51.3097 896.246 51.8267 896.712 52.2131C897.183 52.5937 897.774 52.7841 898.484 52.7841ZM910.444 47.3295V55H907.359V41.9091H910.308V44.1335H910.461C910.762 43.4006 911.242 42.8182 911.901 42.3864C912.566 41.9545 913.387 41.7386 914.364 41.7386C915.268 41.7386 916.055 41.9318 916.725 42.3182C917.401 42.7045 917.924 43.2642 918.293 43.9972C918.668 44.7301 918.853 45.6193 918.847 46.6648V55H915.762V47.142C915.762 46.267 915.535 45.5824 915.08 45.0881C914.631 44.5937 914.009 44.3466 913.214 44.3466C912.674 44.3466 912.194 44.4659 911.773 44.7045C911.359 44.9375 911.032 45.2756 910.793 45.7188C910.56 46.1619 910.444 46.6989 910.444 47.3295ZM925.751 55.2642C924.921 55.2642 924.174 55.1165 923.509 54.821C922.85 54.5199 922.327 54.0767 921.941 53.4915C921.56 52.9062 921.37 52.1847 921.37 51.3267C921.37 50.5881 921.506 49.9773 921.779 49.4943C922.052 49.0114 922.424 48.625 922.896 48.3352C923.367 48.0455 923.898 47.8267 924.489 47.679C925.086 47.5256 925.702 47.4148 926.339 47.3466C927.106 47.267 927.728 47.196 928.205 47.1335C928.683 47.0653 929.029 46.9631 929.245 46.8267C929.467 46.6847 929.577 46.4659 929.577 46.1705V46.1193C929.577 45.4773 929.387 44.9801 929.006 44.6278C928.626 44.2756 928.077 44.0994 927.362 44.0994C926.606 44.0994 926.006 44.2642 925.563 44.5938C925.126 44.9233 924.83 45.3125 924.677 45.7614L921.796 45.3523C922.023 44.5568 922.398 43.892 922.921 43.358C923.444 42.8182 924.083 42.4148 924.839 42.1477C925.594 41.875 926.43 41.7386 927.344 41.7386C927.975 41.7386 928.603 41.8125 929.228 41.9602C929.853 42.108 930.424 42.3523 930.941 42.6932C931.458 43.0284 931.873 43.4858 932.185 44.0653C932.504 44.6449 932.663 45.3693 932.663 46.2386V55H929.697V53.2017H929.594C929.407 53.5653 929.143 53.9062 928.802 54.2244C928.467 54.5369 928.043 54.7898 927.532 54.983C927.026 55.1705 926.433 55.2642 925.751 55.2642ZM926.552 52.9972C927.171 52.9972 927.708 52.875 928.163 52.6307C928.617 52.3807 928.967 52.0511 929.211 51.642C929.461 51.233 929.586 50.7869 929.586 50.304V48.7614C929.489 48.8409 929.325 48.9148 929.092 48.983C928.864 49.0511 928.609 49.1108 928.325 49.1619C928.04 49.2131 927.759 49.2585 927.481 49.2983C927.202 49.3381 926.961 49.3722 926.756 49.4006C926.296 49.4631 925.884 49.5653 925.521 49.7074C925.157 49.8494 924.87 50.0483 924.66 50.304C924.45 50.554 924.344 50.8778 924.344 51.2756C924.344 51.8438 924.552 52.2727 924.967 52.5625C925.381 52.8523 925.91 52.9972 926.552 52.9972ZM938.85 37.5455V55H935.765V37.5455H938.85ZM954.027 55H948.112V37.5455H954.146C955.879 37.5455 957.368 37.8949 958.612 38.5938C959.862 39.2869 960.822 40.2841 961.493 41.5852C962.163 42.8864 962.499 44.4432 962.499 46.2557C962.499 48.0739 962.161 49.6364 961.484 50.9432C960.814 52.25 959.845 53.2528 958.578 53.9517C957.317 54.6506 955.8 55 954.027 55ZM951.274 52.2642H953.874C955.089 52.2642 956.104 52.0426 956.916 51.5994C957.729 51.1506 958.339 50.483 958.749 49.5966C959.158 48.7045 959.362 47.5909 959.362 46.2557C959.362 44.9205 959.158 43.8125 958.749 42.9318C958.339 42.0455 957.734 41.3835 956.933 40.946C956.138 40.5028 955.149 40.2812 953.967 40.2812H951.274V52.2642ZM971.162 55.2557C969.849 55.2557 968.716 54.983 967.761 54.4375C966.813 53.8864 966.082 53.108 965.571 52.1023C965.06 51.0909 964.804 49.9006 964.804 48.5312C964.804 47.1847 965.06 46.0028 965.571 44.9858C966.088 43.9631 966.81 43.1676 967.736 42.5994C968.662 42.0256 969.75 41.7386 971 41.7386C971.807 41.7386 972.568 41.8693 973.284 42.1307C974.006 42.3864 974.642 42.7841 975.193 43.3239C975.75 43.8636 976.188 44.5511 976.506 45.3864C976.824 46.2159 976.983 47.2045 976.983 48.3523V49.2983H966.253V47.2188H974.026C974.02 46.6278 973.892 46.1023 973.642 45.642C973.392 45.1761 973.043 44.8097 972.594 44.5426C972.151 44.2756 971.634 44.142 971.043 44.142C970.412 44.142 969.858 44.2955 969.381 44.6023C968.903 44.9034 968.531 45.3011 968.264 45.7955C968.003 46.2841 967.869 46.821 967.864 47.4062V49.2216C967.864 49.983 968.003 50.6364 968.281 51.1818C968.56 51.7216 968.949 52.1364 969.449 52.4261C969.949 52.7102 970.534 52.8523 971.205 52.8523C971.653 52.8523 972.06 52.7898 972.423 52.6648C972.787 52.5341 973.102 52.3438 973.369 52.0938C973.636 51.8438 973.838 51.5341 973.974 51.1648L976.855 51.4886C976.673 52.25 976.327 52.9148 975.815 53.483C975.31 54.0455 974.662 54.483 973.872 54.7955C973.082 55.1023 972.179 55.2557 971.162 55.2557ZM990.911 41.9091L986.249 55H982.84L978.178 41.9091H981.468L984.477 51.6335H984.613L987.63 41.9091H990.911ZM998.396 55.2557C997.084 55.2557 995.95 54.983 994.996 54.4375C994.047 53.8864 993.317 53.108 992.805 52.1023C992.294 51.0909 992.038 49.9006 992.038 48.5312C992.038 47.1847 992.294 46.0028 992.805 44.9858C993.322 43.9631 994.044 43.1676 994.97 42.5994C995.896 42.0256 996.984 41.7386 998.234 41.7386C999.041 41.7386 999.803 41.8693 1000.52 42.1307C1001.24 42.3864 1001.88 42.7841 1002.43 43.3239C1002.98 43.8636 1003.42 44.5511 1003.74 45.3864C1004.06 46.2159 1004.22 47.2045 1004.22 48.3523V49.2983H993.487V47.2188H1001.26C1001.25 46.6278 1001.13 46.1023 1000.88 45.642C1000.63 45.1761 1000.28 44.8097 999.828 44.5426C999.385 44.2756 998.868 44.142 998.277 44.142C997.646 44.142 997.092 44.2955 996.615 44.6023C996.138 44.9034 995.766 45.3011 995.499 45.7955C995.237 46.2841 995.104 46.821 995.098 47.4062V49.2216C995.098 49.983 995.237 50.6364 995.516 51.1818C995.794 51.7216 996.183 52.1364 996.683 52.4261C997.183 52.7102 997.768 52.8523 998.439 52.8523C998.888 52.8523 999.294 52.7898 999.658 52.6648C1000.02 52.5341 1000.34 52.3438 1000.6 52.0938C1000.87 51.8438 1001.07 51.5341 1001.21 51.1648L1004.09 51.4886C1003.91 52.25 1003.56 52.9148 1003.05 53.483C1002.54 54.0455 1001.9 54.483 1001.11 54.7955C1000.32 55.1023 999.413 55.2557 998.396 55.2557ZM1009.91 37.5455V55H1006.83V37.5455H1009.91ZM1018.8 55.2557C1017.52 55.2557 1016.41 54.9744 1015.47 54.4119C1014.53 53.8494 1013.81 53.0625 1013.29 52.0511C1012.78 51.0398 1012.52 49.858 1012.52 48.5057C1012.52 47.1534 1012.78 45.9687 1013.29 44.9517C1013.81 43.9347 1014.53 43.1449 1015.47 42.5824C1016.41 42.0199 1017.52 41.7386 1018.8 41.7386C1020.07 41.7386 1021.18 42.0199 1022.12 42.5824C1023.06 43.1449 1023.78 43.9347 1024.29 44.9517C1024.81 45.9687 1025.07 47.1534 1025.07 48.5057C1025.07 49.858 1024.81 51.0398 1024.29 52.0511C1023.78 53.0625 1023.06 53.8494 1022.12 54.4119C1021.18 54.9744 1020.07 55.2557 1018.8 55.2557ZM1018.81 52.7841C1019.51 52.7841 1020.09 52.5937 1020.55 52.2131C1021.02 51.8267 1021.36 51.3097 1021.59 50.6619C1021.82 50.0142 1021.94 49.2926 1021.94 48.4972C1021.94 47.696 1021.82 46.9716 1021.59 46.3239C1021.36 45.6705 1021.02 45.1506 1020.55 44.7642C1020.09 44.3778 1019.51 44.1847 1018.81 44.1847C1018.1 44.1847 1017.51 44.3778 1017.04 44.7642C1016.57 45.1506 1016.22 45.6705 1015.99 46.3239C1015.76 46.9716 1015.65 47.696 1015.65 48.4972C1015.65 49.2926 1015.76 50.0142 1015.99 50.6619C1016.22 51.3097 1016.57 51.8267 1017.04 52.2131C1017.51 52.5937 1018.1 52.7841 1018.81 52.7841ZM1027.69 59.9091V41.9091H1030.72V44.0739H1030.9C1031.06 43.7557 1031.28 43.4176 1031.57 43.0597C1031.86 42.696 1032.25 42.3864 1032.75 42.1307C1033.24 41.8693 1033.87 41.7386 1034.64 41.7386C1035.65 41.7386 1036.56 41.9972 1037.38 42.5142C1038.2 43.0256 1038.84 43.7841 1039.32 44.7898C1039.8 45.7898 1040.04 47.017 1040.04 48.4716C1040.04 49.9091 1039.81 51.1307 1039.34 52.1364C1038.87 53.142 1038.22 53.9091 1037.41 54.4375C1036.6 54.9659 1035.68 55.2301 1034.65 55.2301C1033.9 55.2301 1033.28 55.1051 1032.78 54.8551C1032.29 54.6051 1031.89 54.304 1031.59 53.9517C1031.29 53.5937 1031.06 53.2557 1030.9 52.9375H1030.77V59.9091H1027.69ZM1030.71 48.4545C1030.71 49.3011 1030.83 50.0426 1031.07 50.679C1031.31 51.3153 1031.66 51.8125 1032.12 52.1705C1032.58 52.5227 1033.14 52.6989 1033.79 52.6989C1034.47 52.6989 1035.04 52.517 1035.5 52.1534C1035.96 51.7841 1036.31 51.2812 1036.54 50.6449C1036.78 50.0028 1036.9 49.2727 1036.9 48.4545C1036.9 47.642 1036.78 46.9205 1036.55 46.2898C1036.32 45.6591 1035.97 45.1648 1035.51 44.8068C1035.05 44.4489 1034.48 44.2699 1033.79 44.2699C1033.13 44.2699 1032.57 44.4432 1032.11 44.7898C1031.65 45.1364 1031.3 45.6222 1031.06 46.2472C1030.83 46.8722 1030.71 47.608 1030.71 48.4545ZM1042.69 55V41.9091H1045.64V44.1335H1045.79C1046.06 43.3835 1046.51 42.7983 1047.14 42.3778C1047.77 41.9517 1048.53 41.7386 1049.4 41.7386C1050.29 41.7386 1051.04 41.9545 1051.64 42.3864C1052.26 42.8125 1052.69 43.3949 1052.94 44.1335H1053.08C1053.37 43.4062 1053.85 42.8267 1054.54 42.3949C1055.24 41.9574 1056.06 41.7386 1057 41.7386C1058.21 41.7386 1059.19 42.1193 1059.95 42.8807C1060.72 43.642 1061.1 44.7528 1061.1 46.2131V55H1058V46.6903C1058 45.8778 1057.79 45.2841 1057.35 44.9091C1056.92 44.5284 1056.39 44.3381 1055.77 44.3381C1055.02 44.3381 1054.44 44.571 1054.02 45.0369C1053.61 45.4972 1053.4 46.0966 1053.4 46.8352V55H1050.37V46.5625C1050.37 45.8864 1050.17 45.3466 1049.76 44.9432C1049.36 44.5398 1048.83 44.3381 1048.18 44.3381C1047.73 44.3381 1047.33 44.4517 1046.97 44.679C1046.6 44.9006 1046.31 45.2159 1046.1 45.625C1045.88 46.0284 1045.77 46.5 1045.77 47.0398V55H1042.69ZM1070.02 55.2557C1068.71 55.2557 1067.58 54.983 1066.62 54.4375C1065.67 53.8864 1064.94 53.108 1064.43 52.1023C1063.92 51.0909 1063.66 49.9006 1063.66 48.5312C1063.66 47.1847 1063.92 46.0028 1064.43 44.9858C1064.95 43.9631 1065.67 43.1676 1066.6 42.5994C1067.52 42.0256 1068.61 41.7386 1069.86 41.7386C1070.67 41.7386 1071.43 41.8693 1072.14 42.1307C1072.87 42.3864 1073.5 42.7841 1074.05 43.3239C1074.61 43.8636 1075.05 44.5511 1075.37 45.3864C1075.68 46.2159 1075.84 47.2045 1075.84 48.3523V49.2983H1065.11V47.2188H1072.88C1072.88 46.6278 1072.75 46.1023 1072.5 45.642C1072.25 45.1761 1071.9 44.8097 1071.45 44.5426C1071.01 44.2756 1070.49 44.142 1069.9 44.142C1069.27 44.142 1068.72 44.2955 1068.24 44.6023C1067.76 44.9034 1067.39 45.3011 1067.12 45.7955C1066.86 46.2841 1066.73 46.821 1066.72 47.4062V49.2216C1066.72 49.983 1066.86 50.6364 1067.14 51.1818C1067.42 51.7216 1067.81 52.1364 1068.31 52.4261C1068.81 52.7102 1069.39 52.8523 1070.06 52.8523C1070.51 52.8523 1070.92 52.7898 1071.28 52.6648C1071.65 52.5341 1071.96 52.3438 1072.23 52.0938C1072.5 51.8438 1072.7 51.5341 1072.83 51.1648L1075.71 51.4886C1075.53 52.25 1075.19 52.9148 1074.67 53.483C1074.17 54.0455 1073.52 54.483 1072.73 54.7955C1071.94 55.1023 1071.04 55.2557 1070.02 55.2557ZM1081.54 47.3295V55H1078.45V41.9091H1081.4V44.1335H1081.55C1081.86 43.4006 1082.34 42.8182 1083 42.3864C1083.66 41.9545 1084.48 41.7386 1085.46 41.7386C1086.36 41.7386 1087.15 41.9318 1087.82 42.3182C1088.5 42.7045 1089.02 43.2642 1089.39 43.9972C1089.76 44.7301 1089.95 45.6193 1089.94 46.6648V55H1086.86V47.142C1086.86 46.267 1086.63 45.5824 1086.17 45.0881C1085.73 44.5937 1085.1 44.3466 1084.31 44.3466C1083.77 44.3466 1083.29 44.4659 1082.87 44.7045C1082.45 44.9375 1082.13 45.2756 1081.89 45.7188C1081.65 46.1619 1081.54 46.6989 1081.54 47.3295ZM1099.61 41.9091V44.2955H1092.09V41.9091H1099.61ZM1093.95 38.7727H1097.03V51.0625C1097.03 51.4773 1097.09 51.7955 1097.22 52.017C1097.35 52.233 1097.52 52.3807 1097.73 52.4602C1097.94 52.5398 1098.17 52.5795 1098.43 52.5795C1098.62 52.5795 1098.8 52.5653 1098.96 52.5369C1099.12 52.5085 1099.25 52.483 1099.33 52.4602L1099.85 54.8722C1099.69 54.929 1099.45 54.9915 1099.15 55.0597C1098.84 55.1278 1098.48 55.1676 1098.04 55.179C1097.26 55.2017 1096.57 55.0852 1095.95 54.8295C1095.33 54.5682 1094.84 54.1648 1094.48 53.6193C1094.12 53.0739 1093.94 52.392 1093.95 51.5739V38.7727Z" fill="black"/>
<path d="M1125.64 55H1119.72V37.5455H1125.76C1127.49 37.5455 1128.98 37.8949 1130.22 38.5938C1131.47 39.2869 1132.43 40.2841 1133.1 41.5852C1133.77 42.8864 1134.11 44.4432 1134.11 46.2557C1134.11 48.0739 1133.77 49.6364 1133.09 50.9432C1132.42 52.25 1131.45 53.2528 1130.19 53.9517C1128.93 54.6506 1127.41 55 1125.64 55ZM1122.88 52.2642H1125.48C1126.7 52.2642 1127.71 52.0426 1128.53 51.5994C1129.34 51.1506 1129.95 50.483 1130.36 49.5966C1130.77 48.7045 1130.97 47.5909 1130.97 46.2557C1130.97 44.9205 1130.77 43.8125 1130.36 42.9318C1129.95 42.0455 1129.34 41.3835 1128.54 40.946C1127.75 40.5028 1126.76 40.2812 1125.58 40.2812H1122.88V52.2642ZM1142.77 55.2557C1141.46 55.2557 1140.33 54.983 1139.37 54.4375C1138.42 53.8864 1137.69 53.108 1137.18 52.1023C1136.67 51.0909 1136.41 49.9006 1136.41 48.5312C1136.41 47.1847 1136.67 46.0028 1137.18 44.9858C1137.7 43.9631 1138.42 43.1676 1139.35 42.5994C1140.27 42.0256 1141.36 41.7386 1142.61 41.7386C1143.42 41.7386 1144.18 41.8693 1144.89 42.1307C1145.62 42.3864 1146.25 42.7841 1146.8 43.3239C1147.36 43.8636 1147.8 44.5511 1148.12 45.3864C1148.43 46.2159 1148.59 47.2045 1148.59 48.3523V49.2983H1137.86V47.2188H1145.63C1145.63 46.6278 1145.5 46.1023 1145.25 45.642C1145 45.1761 1144.65 44.8097 1144.2 44.5426C1143.76 44.2756 1143.24 44.142 1142.65 44.142C1142.02 44.142 1141.47 44.2955 1140.99 44.6023C1140.51 44.9034 1140.14 45.3011 1139.87 45.7955C1139.61 46.2841 1139.48 46.821 1139.47 47.4062V49.2216C1139.47 49.983 1139.61 50.6364 1139.89 51.1818C1140.17 51.7216 1140.56 52.1364 1141.06 52.4261C1141.56 52.7102 1142.14 52.8523 1142.81 52.8523C1143.26 52.8523 1143.67 52.7898 1144.03 52.6648C1144.4 52.5341 1144.71 52.3438 1144.98 52.0938C1145.25 51.8438 1145.45 51.5341 1145.58 51.1648L1148.46 51.4886C1148.28 52.25 1147.94 52.9148 1147.42 53.483C1146.92 54.0455 1146.27 54.483 1145.48 54.7955C1144.69 55.1023 1143.79 55.2557 1142.77 55.2557ZM1161.55 45.3693L1158.74 45.6761C1158.66 45.392 1158.52 45.125 1158.32 44.875C1158.13 44.625 1157.86 44.4233 1157.53 44.2699C1157.21 44.1165 1156.8 44.0398 1156.32 44.0398C1155.68 44.0398 1155.14 44.179 1154.71 44.4574C1154.27 44.7358 1154.06 45.0966 1154.07 45.5398C1154.06 45.9205 1154.2 46.2301 1154.48 46.4688C1154.77 46.7074 1155.25 46.9034 1155.92 47.0568L1158.15 47.5341C1159.39 47.8011 1160.31 48.2244 1160.91 48.804C1161.52 49.3835 1161.82 50.142 1161.83 51.0795C1161.82 51.9034 1161.58 52.6307 1161.11 53.2614C1160.63 53.8864 1159.98 54.375 1159.14 54.7273C1158.3 55.0795 1157.33 55.2557 1156.24 55.2557C1154.64 55.2557 1153.35 54.9205 1152.37 54.25C1151.39 53.5739 1150.81 52.6335 1150.62 51.429L1153.63 51.1392C1153.77 51.7301 1154.06 52.1761 1154.5 52.4773C1154.94 52.7784 1155.52 52.929 1156.23 52.929C1156.96 52.929 1157.55 52.7784 1158 52.4773C1158.44 52.1761 1158.67 51.804 1158.67 51.3608C1158.67 50.9858 1158.52 50.6761 1158.23 50.4318C1157.95 50.1875 1157.51 50 1156.9 49.8693L1154.67 49.4006C1153.42 49.1392 1152.49 48.6989 1151.88 48.0795C1151.28 47.4545 1150.98 46.6648 1150.99 45.7102C1150.98 44.9034 1151.2 44.2045 1151.65 43.6136C1152.09 43.017 1152.72 42.5568 1153.51 42.233C1154.31 41.9034 1155.24 41.7386 1156.28 41.7386C1157.82 41.7386 1159.02 42.0653 1159.9 42.7188C1160.79 43.3722 1161.34 44.2557 1161.55 45.3693ZM1164.37 55V41.9091H1167.46V55H1164.37ZM1165.93 40.0511C1165.44 40.0511 1165.02 39.8892 1164.66 39.5653C1164.31 39.2358 1164.14 38.8409 1164.14 38.3807C1164.14 37.9148 1164.31 37.5199 1164.66 37.196C1165.02 36.8665 1165.44 36.7017 1165.93 36.7017C1166.42 36.7017 1166.84 36.8665 1167.19 37.196C1167.54 37.5199 1167.72 37.9148 1167.72 38.3807C1167.72 38.8409 1167.54 39.2358 1167.19 39.5653C1166.84 39.8892 1166.42 40.0511 1165.93 40.0511ZM1176.33 60.1818C1175.22 60.1818 1174.27 60.0313 1173.47 59.7301C1172.67 59.4347 1172.04 59.0369 1171.55 58.5369C1171.07 58.0369 1170.73 57.483 1170.55 56.875L1173.33 56.2017C1173.45 56.4574 1173.63 56.7102 1173.87 56.9602C1174.11 57.2159 1174.43 57.4261 1174.83 57.5909C1175.24 57.7614 1175.76 57.8466 1176.38 57.8466C1177.25 57.8466 1177.98 57.6335 1178.55 57.2074C1179.12 56.7869 1179.41 56.0938 1179.41 55.1278V52.6477H1179.26C1179.1 52.9659 1178.87 53.2926 1178.56 53.6278C1178.26 53.9631 1177.86 54.2443 1177.36 54.4716C1176.86 54.6989 1176.24 54.8125 1175.49 54.8125C1174.48 54.8125 1173.57 54.5767 1172.75 54.1051C1171.94 53.6278 1171.29 52.9176 1170.81 51.9744C1170.33 51.0256 1170.1 49.8381 1170.1 48.4119C1170.1 46.9744 1170.33 45.7614 1170.81 44.7727C1171.29 43.7784 1171.94 43.0256 1172.76 42.5142C1173.58 41.9972 1174.49 41.7386 1175.5 41.7386C1176.27 41.7386 1176.9 41.8693 1177.39 42.1307C1177.89 42.3864 1178.29 42.696 1178.58 43.0597C1178.88 43.4176 1179.1 43.7557 1179.26 44.0739H1179.43V41.9091H1182.47V55.2131C1182.47 56.3324 1182.2 57.2585 1181.67 57.9915C1181.13 58.7244 1180.4 59.2727 1179.48 59.6364C1178.55 60 1177.5 60.1818 1176.33 60.1818ZM1176.35 52.392C1177 52.392 1177.56 52.233 1178.02 51.9148C1178.48 51.5966 1178.83 51.1392 1179.07 50.5426C1179.31 49.946 1179.43 49.2301 1179.43 48.3949C1179.43 47.571 1179.31 46.8494 1179.07 46.2301C1178.84 45.6108 1178.49 45.1307 1178.03 44.7898C1177.58 44.4432 1177.02 44.2699 1176.35 44.2699C1175.66 44.2699 1175.09 44.4489 1174.63 44.8068C1174.17 45.1648 1173.82 45.6562 1173.59 46.2812C1173.36 46.9006 1173.24 47.6051 1173.24 48.3949C1173.24 49.196 1173.36 49.8977 1173.59 50.5C1173.83 51.0966 1174.18 51.5625 1174.64 51.8977C1175.1 52.2273 1175.67 52.392 1176.35 52.392ZM1188.72 47.3295V55H1185.63V41.9091H1188.58V44.1335H1188.73C1189.04 43.4006 1189.52 42.8182 1190.17 42.3864C1190.84 41.9545 1191.66 41.7386 1192.64 41.7386C1193.54 41.7386 1194.33 41.9318 1195 42.3182C1195.67 42.7045 1196.2 43.2642 1196.57 43.9972C1196.94 44.7301 1197.13 45.6193 1197.12 46.6648V55H1194.04V47.142C1194.04 46.267 1193.81 45.5824 1193.35 45.0881C1192.9 44.5937 1192.28 44.3466 1191.49 44.3466C1190.95 44.3466 1190.47 44.4659 1190.05 44.7045C1189.63 44.9375 1189.31 45.2756 1189.07 45.7188C1188.83 46.1619 1188.72 46.6989 1188.72 47.3295Z" fill="black"/>
<path d="M1355.72 55V37.5455H1358.88V44.9347H1366.97V37.5455H1370.14V55H1366.97V47.5852H1358.88V55H1355.72ZM1379.24 55.2557C1377.93 55.2557 1376.79 54.983 1375.84 54.4375C1374.89 53.8864 1374.16 53.108 1373.65 52.1023C1373.14 51.0909 1372.88 49.9006 1372.88 48.5312C1372.88 47.1847 1373.14 46.0028 1373.65 44.9858C1374.17 43.9631 1374.89 43.1676 1375.81 42.5994C1376.74 42.0256 1377.83 41.7386 1379.08 41.7386C1379.88 41.7386 1380.65 41.8693 1381.36 42.1307C1382.08 42.3864 1382.72 42.7841 1383.27 43.3239C1383.83 43.8636 1384.27 44.5511 1384.58 45.3864C1384.9 46.2159 1385.06 47.2045 1385.06 48.3523V49.2983H1374.33V47.2188H1382.1C1382.1 46.6278 1381.97 46.1023 1381.72 45.642C1381.47 45.1761 1381.12 44.8097 1380.67 44.5426C1380.23 44.2756 1379.71 44.142 1379.12 44.142C1378.49 44.142 1377.94 44.2955 1377.46 44.6023C1376.98 44.9034 1376.61 45.3011 1376.34 45.7955C1376.08 46.2841 1375.95 46.821 1375.94 47.4062V49.2216C1375.94 49.983 1376.08 50.6364 1376.36 51.1818C1376.64 51.7216 1377.03 52.1364 1377.53 52.4261C1378.03 52.7102 1378.61 52.8523 1379.28 52.8523C1379.73 52.8523 1380.14 52.7898 1380.5 52.6648C1380.87 52.5341 1381.18 52.3438 1381.45 52.0938C1381.71 51.8438 1381.92 51.5341 1382.05 51.1648L1384.93 51.4886C1384.75 52.25 1384.4 52.9148 1383.89 53.483C1383.39 54.0455 1382.74 54.483 1381.95 54.7955C1381.16 55.1023 1380.26 55.2557 1379.24 55.2557ZM1391.44 55.2642C1390.61 55.2642 1389.86 55.1165 1389.2 54.821C1388.54 54.5199 1388.01 54.0767 1387.63 53.4915C1387.25 52.9062 1387.06 52.1847 1387.06 51.3267C1387.06 50.5881 1387.19 49.9773 1387.47 49.4943C1387.74 49.0114 1388.11 48.625 1388.58 48.3352C1389.05 48.0455 1389.59 47.8267 1390.18 47.679C1390.77 47.5256 1391.39 47.4148 1392.03 47.3466C1392.79 47.267 1393.42 47.196 1393.89 47.1335C1394.37 47.0653 1394.72 46.9631 1394.93 46.8267C1395.15 46.6847 1395.26 46.4659 1395.26 46.1705V46.1193C1395.26 45.4773 1395.07 44.9801 1394.69 44.6278C1394.31 44.2756 1393.76 44.0994 1393.05 44.0994C1392.29 44.0994 1391.69 44.2642 1391.25 44.5938C1390.81 44.9233 1390.52 45.3125 1390.36 45.7614L1387.48 45.3523C1387.71 44.5568 1388.09 43.892 1388.61 43.358C1389.13 42.8182 1389.77 42.4148 1390.53 42.1477C1391.28 41.875 1392.12 41.7386 1393.03 41.7386C1393.66 41.7386 1394.29 41.8125 1394.92 41.9602C1395.54 42.108 1396.11 42.3523 1396.63 42.6932C1397.15 43.0284 1397.56 43.4858 1397.87 44.0653C1398.19 44.6449 1398.35 45.3693 1398.35 46.2386V55H1395.38V53.2017H1395.28C1395.09 53.5653 1394.83 53.9062 1394.49 54.2244C1394.15 54.5369 1393.73 54.7898 1393.22 54.983C1392.71 55.1705 1392.12 55.2642 1391.44 55.2642ZM1392.24 52.9972C1392.86 52.9972 1393.4 52.875 1393.85 52.6307C1394.3 52.3807 1394.65 52.0511 1394.9 51.642C1395.15 51.233 1395.27 50.7869 1395.27 50.304V48.7614C1395.18 48.8409 1395.01 48.9148 1394.78 48.983C1394.55 49.0511 1394.3 49.1108 1394.01 49.1619C1393.73 49.2131 1393.45 49.2585 1393.17 49.2983C1392.89 49.3381 1392.65 49.3722 1392.44 49.4006C1391.98 49.4631 1391.57 49.5653 1391.21 49.7074C1390.84 49.8494 1390.56 50.0483 1390.35 50.304C1390.14 50.554 1390.03 50.8778 1390.03 51.2756C1390.03 51.8438 1390.24 52.2727 1390.65 52.5625C1391.07 52.8523 1391.6 52.9972 1392.24 52.9972ZM1404.54 37.5455V55H1401.45V37.5455H1404.54ZM1414.25 41.9091V44.2955H1406.72V41.9091H1414.25ZM1408.58 38.7727H1411.66V51.0625C1411.66 51.4773 1411.73 51.7955 1411.85 52.017C1411.98 52.233 1412.15 52.3807 1412.36 52.4602C1412.57 52.5398 1412.81 52.5795 1413.06 52.5795C1413.26 52.5795 1413.43 52.5653 1413.59 52.5369C1413.76 52.5085 1413.88 52.483 1413.97 52.4602L1414.49 54.8722C1414.32 54.929 1414.09 54.9915 1413.78 55.0597C1413.48 55.1278 1413.11 55.1676 1412.67 55.179C1411.9 55.2017 1411.2 55.0852 1410.58 54.8295C1409.96 54.5682 1409.47 54.1648 1409.11 53.6193C1408.75 53.0739 1408.57 52.392 1408.58 51.5739V38.7727ZM1420.19 47.3295V55H1417.11V37.5455H1420.13V44.1335H1420.28C1420.59 43.3949 1421.06 42.8125 1421.7 42.3864C1422.35 41.9545 1423.17 41.7386 1424.17 41.7386C1425.08 41.7386 1425.88 41.929 1426.55 42.3097C1427.23 42.6903 1427.75 43.2472 1428.12 43.9801C1428.5 44.7131 1428.68 45.608 1428.68 46.6648V55H1425.6V47.142C1425.6 46.2614 1425.37 45.5767 1424.92 45.0881C1424.47 44.5937 1423.84 44.3466 1423.02 44.3466C1422.48 44.3466 1421.99 44.4659 1421.56 44.7045C1421.13 44.9375 1420.8 45.2756 1420.55 45.7188C1420.31 46.1619 1420.19 46.6989 1420.19 47.3295ZM1443 55.2557C1441.8 55.2557 1440.78 55.0398 1439.92 54.608C1439.06 54.1761 1438.4 53.5938 1437.93 52.8608C1437.47 52.1222 1437.24 51.2898 1437.24 50.3636C1437.24 49.6648 1437.39 49.0455 1437.67 48.5057C1437.96 47.9659 1438.36 47.4659 1438.86 47.0057C1439.37 46.5455 1439.97 46.0881 1440.64 45.6335L1443.73 43.5284C1444.18 43.233 1444.53 42.9205 1444.76 42.5909C1445 42.2614 1445.12 41.875 1445.12 41.4318C1445.12 41.0568 1444.96 40.7017 1444.64 40.3665C1444.33 40.0312 1443.9 39.8636 1443.35 39.8636C1442.98 39.8636 1442.65 39.9517 1442.37 40.1278C1442.09 40.2983 1441.87 40.5227 1441.71 40.8011C1441.56 41.0795 1441.48 41.375 1441.48 41.6875C1441.48 42.0682 1441.58 42.4545 1441.79 42.8466C1442.01 43.2386 1442.29 43.6449 1442.63 44.0653C1442.98 44.4858 1443.35 44.9318 1443.74 45.4034L1451.93 55H1448.59L1441.79 47.2102C1441.28 46.6193 1440.79 46.0369 1440.32 45.4631C1439.85 44.8892 1439.47 44.2926 1439.17 43.6733C1438.87 43.0483 1438.73 42.3722 1438.73 41.6449C1438.73 40.821 1438.92 40.0852 1439.3 39.4375C1439.68 38.7841 1440.21 38.2699 1440.89 37.8949C1441.58 37.5199 1442.38 37.3324 1443.3 37.3324C1444.22 37.3324 1445.01 37.5142 1445.67 37.8778C1446.33 38.2415 1446.84 38.7244 1447.2 39.3267C1447.56 39.929 1447.74 40.5852 1447.74 41.2955C1447.74 42.1193 1447.53 42.858 1447.12 43.5114C1446.71 44.1591 1446.14 44.7472 1445.42 45.2756L1441.89 47.858C1441.31 48.2784 1440.89 48.7045 1440.64 49.1364C1440.39 49.5625 1440.27 49.9261 1440.27 50.2273C1440.27 50.6875 1440.39 51.1051 1440.62 51.4801C1440.85 51.8551 1441.18 52.1562 1441.6 52.3835C1442.02 52.6051 1442.52 52.7159 1443.09 52.7159C1443.72 52.7159 1444.33 52.5767 1444.94 52.2983C1445.55 52.0142 1446.1 51.6108 1446.6 51.0881C1447.1 50.5653 1447.5 49.9403 1447.79 49.2131C1448.09 48.4801 1448.24 47.6676 1448.24 46.7756H1450.89C1450.89 47.8778 1450.77 48.8381 1450.52 49.6562C1450.28 50.4688 1449.96 51.1562 1449.58 51.7188C1449.19 52.2756 1448.78 52.7216 1448.35 53.0568C1448.21 53.1534 1448.08 53.25 1447.96 53.3466C1447.83 53.4432 1447.7 53.5398 1447.56 53.6364C1446.95 54.1932 1446.23 54.6023 1445.41 54.8636C1444.59 55.125 1443.79 55.2557 1443 55.2557ZM1459.78 55V37.5455H1470.97V40.196H1462.95V44.9347H1470.2V47.5852H1462.95V55H1459.78ZM1473.71 55V41.9091H1476.8V55H1473.71ZM1475.26 40.0511C1474.77 40.0511 1474.35 39.8892 1474 39.5653C1473.65 39.2358 1473.47 38.8409 1473.47 38.3807C1473.47 37.9148 1473.65 37.5199 1474 37.196C1474.35 36.8665 1474.77 36.7017 1475.26 36.7017C1475.76 36.7017 1476.18 36.8665 1476.52 37.196C1476.88 37.5199 1477.05 37.9148 1477.05 38.3807C1477.05 38.8409 1476.88 39.2358 1476.52 39.5653C1476.18 39.8892 1475.76 40.0511 1475.26 40.0511ZM1486.5 41.9091V44.2955H1478.98V41.9091H1486.5ZM1480.84 38.7727H1483.92V51.0625C1483.92 51.4773 1483.99 51.7955 1484.11 52.017C1484.24 52.233 1484.41 52.3807 1484.62 52.4602C1484.83 52.5398 1485.06 52.5795 1485.32 52.5795C1485.51 52.5795 1485.69 52.5653 1485.85 52.5369C1486.01 52.5085 1486.14 52.483 1486.22 52.4602L1486.74 54.8722C1486.58 54.929 1486.34 54.9915 1486.04 55.0597C1485.74 55.1278 1485.37 55.1676 1484.93 55.179C1484.16 55.2017 1483.46 55.0852 1482.84 54.8295C1482.22 54.5682 1481.73 54.1648 1481.37 53.6193C1481.01 53.0739 1480.83 52.392 1480.84 51.5739V38.7727ZM1492.17 47.3295V55H1489.09V41.9091H1492.03V44.1335H1492.19C1492.49 43.4006 1492.97 42.8182 1493.63 42.3864C1494.29 41.9545 1495.11 41.7386 1496.09 41.7386C1496.99 41.7386 1497.78 41.9318 1498.45 42.3182C1499.13 42.7045 1499.65 43.2642 1500.02 43.9972C1500.39 44.7301 1500.58 45.6193 1500.57 46.6648V55H1497.49V47.142C1497.49 46.267 1497.26 45.5824 1496.81 45.0881C1496.36 44.5937 1495.74 44.3466 1494.94 44.3466C1494.4 44.3466 1493.92 44.4659 1493.5 44.7045C1493.09 44.9375 1492.76 45.2756 1492.52 45.7188C1492.29 46.1619 1492.17 46.6989 1492.17 47.3295ZM1509.51 55.2557C1508.19 55.2557 1507.06 54.983 1506.11 54.4375C1505.16 53.8864 1504.43 53.108 1503.91 52.1023C1503.4 51.0909 1503.15 49.9006 1503.15 48.5312C1503.15 47.1847 1503.4 46.0028 1503.91 44.9858C1504.43 43.9631 1505.15 43.1676 1506.08 42.5994C1507.01 42.0256 1508.09 41.7386 1509.34 41.7386C1510.15 41.7386 1510.91 41.8693 1511.63 42.1307C1512.35 42.3864 1512.99 42.7841 1513.54 43.3239C1514.09 43.8636 1514.53 44.5511 1514.85 45.3864C1515.17 46.2159 1515.33 47.2045 1515.33 48.3523V49.2983H1504.6V47.2188H1512.37C1512.36 46.6278 1512.24 46.1023 1511.99 45.642C1511.74 45.1761 1511.39 44.8097 1510.94 44.5426C1510.49 44.2756 1509.98 44.142 1509.39 44.142C1508.76 44.142 1508.2 44.2955 1507.72 44.6023C1507.25 44.9034 1506.88 45.3011 1506.61 45.7955C1506.35 46.2841 1506.21 46.821 1506.21 47.4062V49.2216C1506.21 49.983 1506.35 50.6364 1506.62 51.1818C1506.9 51.7216 1507.29 52.1364 1507.79 52.4261C1508.29 52.7102 1508.88 52.8523 1509.55 52.8523C1510 52.8523 1510.4 52.7898 1510.77 52.6648C1511.13 52.5341 1511.45 52.3438 1511.71 52.0938C1511.98 51.8438 1512.18 51.5341 1512.32 51.1648L1515.2 51.4886C1515.02 52.25 1514.67 52.9148 1514.16 53.483C1513.65 54.0455 1513.01 54.483 1512.22 54.7955C1511.43 55.1023 1510.52 55.2557 1509.51 55.2557ZM1528.28 45.3693L1525.47 45.6761C1525.39 45.392 1525.25 45.125 1525.05 44.875C1524.86 44.625 1524.6 44.4233 1524.27 44.2699C1523.94 44.1165 1523.54 44.0398 1523.06 44.0398C1522.42 44.0398 1521.88 44.179 1521.44 44.4574C1521.01 44.7358 1520.79 45.0966 1520.8 45.5398C1520.79 45.9205 1520.93 46.2301 1521.22 46.4688C1521.51 46.7074 1521.99 46.9034 1522.65 47.0568L1524.88 47.5341C1526.12 47.8011 1527.04 48.2244 1527.64 48.804C1528.25 49.3835 1528.56 50.142 1528.56 51.0795C1528.56 51.9034 1528.32 52.6307 1527.84 53.2614C1527.37 53.8864 1526.71 54.375 1525.87 54.7273C1525.03 55.0795 1524.06 55.2557 1522.97 55.2557C1521.37 55.2557 1520.08 54.9205 1519.1 54.25C1518.13 53.5739 1517.54 52.6335 1517.36 51.429L1520.37 51.1392C1520.5 51.7301 1520.79 52.1761 1521.24 52.4773C1521.68 52.7784 1522.25 52.929 1522.97 52.929C1523.7 52.929 1524.29 52.7784 1524.73 52.4773C1525.18 52.1761 1525.4 51.804 1525.4 51.3608C1525.4 50.9858 1525.26 50.6761 1524.97 50.4318C1524.68 50.1875 1524.24 50 1523.64 49.8693L1521.41 49.4006C1520.15 49.1392 1519.22 48.6989 1518.62 48.0795C1518.02 47.4545 1517.72 46.6648 1517.72 45.7102C1517.72 44.9034 1517.94 44.2045 1518.38 43.6136C1518.83 43.017 1519.45 42.5568 1520.25 42.233C1521.05 41.9034 1521.97 41.7386 1523.02 41.7386C1524.55 41.7386 1525.76 42.0653 1526.64 42.7188C1527.52 43.3722 1528.07 44.2557 1528.28 45.3693ZM1541.46 45.3693L1538.64 45.6761C1538.56 45.392 1538.42 45.125 1538.23 44.875C1538.03 44.625 1537.77 44.4233 1537.44 44.2699C1537.11 44.1165 1536.71 44.0398 1536.23 44.0398C1535.59 44.0398 1535.05 44.179 1534.61 44.4574C1534.18 44.7358 1533.97 45.0966 1533.97 45.5398C1533.97 45.9205 1534.11 46.2301 1534.39 46.4688C1534.68 46.7074 1535.16 46.9034 1535.82 47.0568L1538.05 47.5341C1539.29 47.8011 1540.21 48.2244 1540.82 48.804C1541.42 49.3835 1541.73 50.142 1541.74 51.0795C1541.73 51.9034 1541.49 52.6307 1541.01 53.2614C1540.54 53.8864 1539.88 54.375 1539.04 54.7273C1538.2 55.0795 1537.24 55.2557 1536.15 55.2557C1534.54 55.2557 1533.25 54.9205 1532.28 54.25C1531.3 53.5739 1530.72 52.6335 1530.53 51.429L1533.54 51.1392C1533.67 51.7301 1533.96 52.1761 1534.41 52.4773C1534.85 52.7784 1535.43 52.929 1536.14 52.929C1536.87 52.929 1537.46 52.7784 1537.9 52.4773C1538.35 52.1761 1538.57 51.804 1538.57 51.3608C1538.57 50.9858 1538.43 50.6761 1538.14 50.4318C1537.86 50.1875 1537.41 50 1536.81 49.8693L1534.58 49.4006C1533.32 49.1392 1532.39 48.6989 1531.79 48.0795C1531.19 47.4545 1530.89 46.6648 1530.9 45.7102C1530.89 44.9034 1531.11 44.2045 1531.55 43.6136C1532 43.017 1532.62 42.5568 1533.42 42.233C1534.22 41.9034 1535.14 41.7386 1536.19 41.7386C1537.72 41.7386 1538.93 42.0653 1539.81 42.7188C1540.7 43.3722 1541.25 44.2557 1541.46 45.3693Z" fill="black"/>
<path d="M1562.72 37.5455H1566.59L1571.77 50.1932H1571.98L1577.16 37.5455H1581.03V55H1577.99V43.0085H1577.83L1573.01 54.9489H1570.74L1565.92 42.983H1565.76V55H1562.72V37.5455ZM1592.68 49.4943V41.9091H1595.76V55H1592.77V52.6733H1592.64C1592.34 53.4062 1591.86 54.0057 1591.18 54.4716C1590.51 54.9375 1589.68 55.1705 1588.7 55.1705C1587.84 55.1705 1587.08 54.9801 1586.42 54.5994C1585.77 54.2131 1585.26 53.6534 1584.89 52.9205C1584.52 52.1818 1584.34 51.2898 1584.34 50.2443V41.9091H1587.42V49.767C1587.42 50.5966 1587.65 51.2557 1588.1 51.7443C1588.56 52.233 1589.15 52.4773 1589.89 52.4773C1590.35 52.4773 1590.79 52.3665 1591.21 52.1449C1591.64 51.9233 1591.99 51.5938 1592.26 51.1562C1592.54 50.7131 1592.68 50.1591 1592.68 49.4943ZM1609.28 45.3693L1606.47 45.6761C1606.39 45.392 1606.25 45.125 1606.05 44.875C1605.86 44.625 1605.6 44.4233 1605.27 44.2699C1604.94 44.1165 1604.54 44.0398 1604.06 44.0398C1603.42 44.0398 1602.88 44.179 1602.44 44.4574C1602.01 44.7358 1601.79 45.0966 1601.8 45.5398C1601.79 45.9205 1601.93 46.2301 1602.22 46.4688C1602.51 46.7074 1602.99 46.9034 1603.65 47.0568L1605.88 47.5341C1607.12 47.8011 1608.04 48.2244 1608.64 48.804C1609.25 49.3835 1609.56 50.142 1609.56 51.0795C1609.56 51.9034 1609.32 52.6307 1608.84 53.2614C1608.37 53.8864 1607.71 54.375 1606.87 54.7273C1606.03 55.0795 1605.06 55.2557 1603.97 55.2557C1602.37 55.2557 1601.08 54.9205 1600.1 54.25C1599.13 53.5739 1598.54 52.6335 1598.36 51.429L1601.37 51.1392C1601.5 51.7301 1601.79 52.1761 1602.24 52.4773C1602.68 52.7784 1603.25 52.929 1603.97 52.929C1604.7 52.929 1605.29 52.7784 1605.73 52.4773C1606.18 52.1761 1606.4 51.804 1606.4 51.3608C1606.4 50.9858 1606.26 50.6761 1605.97 50.4318C1605.68 50.1875 1605.24 50 1604.64 49.8693L1602.41 49.4006C1601.15 49.1392 1600.22 48.6989 1599.62 48.0795C1599.02 47.4545 1598.72 46.6648 1598.72 45.7102C1598.72 44.9034 1598.94 44.2045 1599.38 43.6136C1599.83 43.017 1600.45 42.5568 1601.25 42.233C1602.05 41.9034 1602.97 41.7386 1604.02 41.7386C1605.55 41.7386 1606.76 42.0653 1607.64 42.7188C1608.52 43.3722 1609.07 44.2557 1609.28 45.3693ZM1612.11 55V41.9091H1615.19V55H1612.11ZM1613.66 40.0511C1613.17 40.0511 1612.75 39.8892 1612.4 39.5653C1612.05 39.2358 1611.87 38.8409 1611.87 38.3807C1611.87 37.9148 1612.05 37.5199 1612.4 37.196C1612.75 36.8665 1613.17 36.7017 1613.66 36.7017C1614.15 36.7017 1614.57 36.8665 1614.92 37.196C1615.27 37.5199 1615.45 37.9148 1615.45 38.3807C1615.45 38.8409 1615.27 39.2358 1614.92 39.5653C1614.57 39.8892 1614.15 40.0511 1613.66 40.0511ZM1624.08 55.2557C1622.77 55.2557 1621.65 54.9688 1620.71 54.3949C1619.78 53.821 1619.06 53.0284 1618.55 52.017C1618.05 51 1617.8 49.8295 1617.8 48.5057C1617.8 47.1761 1618.06 46.0028 1618.57 44.9858C1619.08 43.9631 1619.8 43.1676 1620.74 42.5994C1621.67 42.0256 1622.78 41.7386 1624.06 41.7386C1625.12 41.7386 1626.06 41.9347 1626.88 42.3267C1627.7 42.7131 1628.36 43.2614 1628.85 43.9716C1629.34 44.6761 1629.62 45.5 1629.68 46.4432H1626.74C1626.62 45.8125 1626.33 45.2869 1625.88 44.8665C1625.44 44.4403 1624.85 44.2273 1624.1 44.2273C1623.47 44.2273 1622.92 44.3977 1622.44 44.7386C1621.96 45.0739 1621.59 45.5568 1621.32 46.1875C1621.06 46.8182 1620.93 47.5739 1620.93 48.4545C1620.93 49.3466 1621.06 50.1136 1621.32 50.7557C1621.59 51.392 1621.95 51.8835 1622.42 52.2301C1622.9 52.571 1623.46 52.7415 1624.1 52.7415C1624.56 52.7415 1624.96 52.6562 1625.32 52.4858C1625.68 52.3097 1625.99 52.0568 1626.23 51.7273C1626.48 51.3977 1626.64 50.9972 1626.74 50.5256H1629.68C1629.61 51.4517 1629.34 52.2727 1628.87 52.9886C1628.39 53.6989 1627.75 54.2557 1626.94 54.6591C1626.13 55.0568 1625.17 55.2557 1624.08 55.2557Z" fill="black"/>
</svg>
